<?xml version="1.0" standalone="no"?><!DOCTYPE svg PUBLIC "-//W3C//DTD SVG 1.1//EN" "http://www.w3.org/Graphics/SVG/1.1/DTD/svg11.dtd" ><svg xmlns="http://www.w3.org/2000/svg"><metadata></metadata><defs><font id="fonteditor" horiz-adv-x="2660"><font-face font-family="mjVþh" font-weight="400" font-stretch="normal" units-per-em="2048" panose-1="2 0 5 0 0 0 0 0 0 0" ascent="1716" descent="-418" x-height="0" bbox="-332 -460 3292 1996" underline-thickness="150" underline-position="-217" unicode-range="U+e330-e61f" /><missing-glyph horiz-adv-x="1024" d="M100 0 L100 1434 L924 1434 L924 0 L100 0 ZM150 50 L874 50 L874 1384 L150 1384 L150 50 ZM325 1148 Q356 1176 383 1191 Q436 1221 495 1221 Q587 1221 643 1173.5 Q699 1126 699 1046 Q699 997 676 947.5 Q653 898 589 818 Q526 738 490 686 Q454 634 454 587 Q454 549 478 454 L446 454 Q411 551 411 602 Q411 678 492.5 820 Q574 962 574 1037 Q574 1094 541 1127 Q508 1160 450 1160 Q412 1160 381 1143 Q355 1128 325 1103 L325 1148 ZM389 334 L446 392 Q457 402 466 402 Q476 402 488 391 L544 331 Q553 320 553 311 Q553 300 543 289 L487 227 Q473 213 466 213 Q455 213 446 223 L385 294 Q378 303 378 312 Q378 322 389 334 Z" /><glyph glyph-name="glass" unicode="&#xe330;" d="M1456 1426 Q1456 1425 1456 1424 Q1457 1421 1457 1417 Q1457 1414 1456 1410 Q1456 1409 1456 1408 L1456 989 Q1456 679 1257 460.5 Q1058 242 760 221 L760 -106 L1100 -106 L1100 -268 L357 -268 L357 -106 L697 -106 L697 221 Q399 242 200 460.5 Q1 679 1 989 L1 1408 Q1 1409 0 1410 Q0 1414 0 1417 Q0 1421 0 1424 Q1 1425 1 1426 L1 1428 Q19 1543 226.5 1620 Q434 1697 728 1697 Q1023 1697 1230.5 1620 Q1438 1543 1456 1428 L1456 1426 ZM1370 982 L1370 1285 Q1157 1126 728 1126 Q299 1126 86 1285 L86 982 Q86 701 274.5 501 Q463 301 728 301 Q994 301 1182 501 Q1370 701 1370 982 ZM728 1208 Q1022 1208 1196 1280.5 Q1370 1353 1370 1417 Q1370 1481 1196 1553.5 Q1022 1626 728 1626 Q434 1626 260 1553.5 Q86 1481 86 1417 Q86 1353 260 1280.5 Q434 1208 728 1208 Z" /><glyph glyph-name="music" unicode="&#xe331;" d="M1989 1032 L1823 868 L1412 1334 L1409 129 Q1409 -55 1182.5 -168.5 Q956 -282 663 -282 Q371 -282 185.5 -168.5 Q0 -55 0 129 Q0 312 185.5 467 Q371 622 663 622 Q1002 622 1243 421 L1243 1689 L1412 1689 L1412 1686 L1989 1032 ZM672 -191 Q672 -191 732.5 -187 Q793 -183 881 -167 Q969 -151 1057.5 -118 Q1146 -85 1206.5 -29 Q1267 27 1267 114 Q1267 320 1093.5 418.5 Q920 517 677 526 Q403 528 248.5 391 Q94 254 94 114 Q94 -166 672 -191 Z" /><glyph glyph-name="search" unicode="&#xe332;" d="M1691 203 Q1866 445 1879 753 Q1879 1143 1604.5 1417.5 Q1330 1692 939 1692 Q549 1692 274.5 1417.5 Q0 1143 0 753 Q0 362 274.5 87.5 Q549 -187 939 -187 Q1254 -187 1518 7 L1822 -296 Q1837 -281 1911 -202.5 Q1985 -124 2002 -107 L1691 203 ZM932 -35 Q602 -35 369.5 197 Q137 429 137 760 Q137 1090 369.5 1322.5 Q602 1555 932 1555 Q1263 1555 1495 1322.5 Q1727 1090 1727 760 Q1727 429 1495 197 Q1263 -35 932 -35 Z" /><glyph glyph-name="menu" unicode="&#xe333;" d="M1882 1412 L1882 1192 L0 1192 L0 1412 L1882 1412 ZM1882 251 L1882 31 L0 31 L0 251 L1882 251 Z" /><glyph glyph-name="service" unicode="&#xe334;" d="M1649 614 Q1683 585 1702.5 538.5 Q1722 492 1707 426 Q1685 350 1622 313 Q1573 273 1509 273 Q1507 273 1505 273 Q1504 274 1502 274 Q1467 120 1377.5 5 Q1288 -110 1156 -174.5 Q1024 -239 862 -239 Q700 -239 568 -174.5 Q436 -110 346.5 4.5 Q257 119 222 273 Q170 273 128 300 Q44 332 15 425 Q0 486 15.5 530 Q31 574 60 602 L60 670 Q55 1052 272 1282 Q376 1389 520 1445 Q528 1514 574 1568.5 Q620 1623 693.5 1655.5 Q767 1688 855 1688 Q942 1688 1015.5 1655.5 Q1089 1623 1135 1568.5 Q1181 1514 1189 1445 Q1333 1389 1437 1282 Q1654 1051 1649 669 L1649 614 ZM1460 447 L1462 452 L1458 455 Q1396 533 1310.5 566 Q1225 599 1128 617 Q1120 619 1112 621 Q1023 638 934 670 Q805 724 721 802 Q637 880 601 935 Q573 885 523.5 812.5 Q474 740 408.5 674.5 Q343 609 269 579 Q267 549 266 521.5 Q265 494 265 482 L266 447 Q266 264 342 123 Q418 -18 552.5 -97.5 Q687 -177 863 -177 L865 -177 Q1002 -177 1115 -127.5 Q1228 -78 1308 11.5 Q1388 101 1428 223 Q1414 206 1397 189 Q1298 86 1163 30 Q1068 -8 964 -20 Q956 -45 929.5 -61 Q903 -77 866 -77 Q825 -77 796.5 -57 Q768 -37 768 -9 Q768 19 797 38.5 Q826 58 866 58 Q924 58 954 22 Q1117 41 1244 120.5 Q1371 200 1451 330 Q1460 386 1460 447 Z" /><glyph glyph-name="textbook" unicode="&#xe335;" d="M2014 1224 Q2041 1224 2059.5 1205 Q2078 1186 2079 1158 L2079 -41 Q2079 -68 2060 -87 Q2041 -106 2014 -106 L65 -106 Q38 -106 19 -87 Q0 -68 0 -41 L0 1158 Q0 1185 19 1204.5 Q38 1224 65 1224 L224 1224 L224 1269 L279 1291 Q284 1294 329.5 1310 Q375 1326 448 1346 Q521 1366 608 1381.5 Q695 1397 781 1397 Q942 1397 1038 1331 Q1133 1397 1294 1397 Q1380 1397 1467.5 1381.5 Q1555 1366 1627.5 1346 Q1700 1326 1746 1310 Q1792 1294 1797 1291 L1852 1269 L1852 1224 L2014 1224 ZM1765 1210 Q1765 1210 1692 1235 Q1619 1260 1512 1284.5 Q1405 1309 1294 1310 Q1233 1310 1177.5 1297.5 Q1122 1285 1081 1255 L1081 297 Q1181 350 1314 347 Q1447 344 1570.5 314 Q1694 284 1765 259 L1765 1210 ZM1667 200 Q1572 229 1461 248 Q1350 267 1251.5 259 Q1153 251 1095 200 L1667 200 ZM781 1311 Q700 1311 617 1295.5 Q534 1280 465 1260.5 Q396 1241 353 1225.5 Q310 1210 310 1210 L310 259 Q381 285 504.5 314.5 Q628 344 761 347.5 Q894 351 994 297 L994 1255 Q953 1285 898 1298 Q843 1311 781 1311 ZM980 200 Q922 251 823.5 259 Q725 267 614 248 Q503 229 408 200 L980 200 ZM1949 25 L1949 1093 L1852 1093 L1852 113 L223 113 L223 1093 L130 1093 L130 25 L1949 25 Z" /><glyph glyph-name="IDcard" unicode="&#xe336;" d="M1799 880 Q1819 880 1834 894 Q1848 909 1848 929 L1848 1158 Q1848 1178 1834 1193 Q1819 1207 1799 1207 L1716 1207 L1716 1508 Q1716 1591 1659 1649 Q1601 1706 1518 1706 L198 1706 Q116 1706 58 1649 Q0 1591 0 1508 L0 -208 Q0 -290 58 -348 Q116 -406 198 -406 L1518 -406 Q1601 -406 1659 -348 Q1716 -290 1716 -208 L1716 133 L1799 133 Q1819 133 1834 147 Q1848 162 1848 182 L1848 411 Q1848 431 1834 446 Q1819 460 1799 460 L1716 460 L1716 880 L1799 880 ZM1518 -208 L198 -208 L198 1508 L1518 1508 L1518 -208 ZM487 122 L1229 122 Q1267 122 1293 145 Q1320 168 1320 201 L1320 279 Q1320 378 1240 448 Q1159 518 1044 518 Q1027 518 990 506 Q924 485 858 485 Q792 485 726 506 Q693 518 673 518 Q557 518 477 448 Q396 378 396 279 L396 201 Q396 168 423 145 Q450 122 487 122 ZM858 650 Q965 650 1044 729 Q1122 807 1122 914 Q1122 1022 1044 1100 Q965 1178 858 1178 Q751 1178 673 1100 Q594 1022 594 914 Q594 807 673 729 Q751 650 858 650 Z" /><glyph glyph-name="Idcards" unicode="&#xe337;" d="M1619 1392 L147 1392 Q86 1392 43 1349 Q0 1306 0 1245 L0 165 Q0 104 43 61 Q86 18 147 18 L1619 18 Q1680 18 1723 61 Q1766 104 1766 165 L1766 1245 Q1766 1306 1723 1349 Q1680 1392 1619 1392 ZM1619 165 L147 165 L147 1245 L1619 1245 L1619 165 ZM271 347 L876 347 Q906 347 928 365 Q950 384 950 411 L950 475 Q950 555 884 612 Q819 670 725 670 Q711 670 681 660 Q627 643 573 643 Q520 643 466 660 Q439 670 422 670 Q328 670 263 612 Q197 555 197 475 L197 411 Q197 384 219 365 Q241 347 271 347 ZM573 702 Q661 702 725 766 Q789 829 789 917 Q789 1004 725 1068 Q661 1132 573 1132 Q486 1132 422 1068 Q358 1004 358 917 Q358 829 422 766 Q486 702 573 702 ZM1058 610 L1494 610 Q1505 610 1515 617 Q1525 625 1525 634 L1525 683 Q1525 692 1515 700 Q1505 708 1494 708 L1058 708 Q1046 708 1036 700 Q1026 692 1026 683 L1026 634 Q1026 625 1036 617 Q1046 610 1058 610 ZM1051 413 L1394 413 Q1404 413 1411 421 Q1419 429 1419 438 L1419 487 Q1419 496 1411 504 Q1404 511 1394 511 L1051 511 Q1042 511 1034 504 Q1026 496 1026 487 L1026 438 Q1026 429 1034 421 Q1042 413 1051 413 ZM1051 803 L1394 803 Q1404 803 1411 811 Q1419 818 1419 828 L1419 877 Q1419 886 1411 894 Q1404 901 1394 901 L1051 901 Q1042 901 1034 894 Q1026 886 1026 877 L1026 828 Q1026 818 1034 811 Q1042 803 1051 803 Z" /><glyph glyph-name="uniE338" unicode="&#xe338;" d="M1244 709 Q1273 709 1284 682 Q1295 656 1277 638 L890 262 L506 638 Q484 656 495 682 Q506 709 534 709 L775 709 L775 1125 Q775 1143 787 1156 Q800 1168 818 1168 L961 1168 Q979 1168 992 1156 Q1004 1143 1004 1125 L1004 709 L1244 709 ZM1659 1103 Q1779 899 1779 658 Q1779 418 1659 214 Q1539 9 1334 -111 Q1130 -231 889 -231 Q649 -231 445 -111 Q240 9 120 214 Q0 418 0 658 Q0 899 120 1103 Q240 1307 445 1428 Q649 1548 889 1548 Q1130 1548 1334 1428 Q1539 1307 1659 1103 ZM1510 300 Q1607 465 1607 658 Q1607 852 1510 1017 Q1413 1182 1248 1279 Q1083 1376 889 1376 Q696 1376 531 1279 Q366 1182 269 1017 Q172 852 172 658 Q172 465 269 300 Q366 135 531 38 Q696 -59 889 -59 Q1083 -59 1248 38 Q1413 135 1510 300 ZM586 136 L1193 136 Q1209 136 1223 145 Q1236 153 1236 164 L1236 222 Q1236 232 1223 241 Q1209 250 1193 250 L586 250 Q570 250 556 241 Q543 232 543 222 L543 164 Q543 153 556 145 Q570 136 586 136 Z" /><glyph glyph-name="uniE339" unicode="&#xe339;" d="M943 296 Q943 267 916 256 Q889 246 871 264 L495 652 L871 1037 Q889 1058 916 1048 Q943 1037 943 1008 L943 767 L1360 767 Q1377 767 1390 754 Q1403 742 1403 724 L1403 580 Q1403 562 1390 549 Q1377 537 1360 537 L943 537 L943 296 ZM1337 -120 Q1132 -240 891 -240 Q651 -240 446 -120 Q241 1 120 206 Q0 411 0 652 Q0 893 120 1098 Q241 1303 446 1423 Q651 1544 891 1544 Q1132 1544 1337 1423 Q1542 1303 1662 1098 Q1783 893 1783 652 Q1783 411 1662 206 Q1542 1 1337 -120 ZM532 30 Q697 -67 891 -67 Q1086 -67 1251 30 Q1416 127 1513 292 Q1610 458 1610 652 Q1610 846 1513 1012 Q1416 1177 1251 1274 Q1086 1371 891 1371 Q697 1371 532 1274 Q367 1177 270 1012 Q173 846 173 652 Q173 458 270 292 Q367 127 532 30 ZM367 956 L367 347 Q367 331 376 318 Q385 304 396 304 L454 304 Q464 304 473 318 Q482 331 482 347 L482 956 Q482 972 473 986 Q464 999 454 999 L396 999 Q385 999 376 986 Q367 972 367 956 Z" /><glyph glyph-name="uniE33A" unicode="&#xe33a;" d="M831 1013 Q831 1041 858 1052 Q884 1062 902 1045 L1274 661 L902 280 Q884 259 858 270 Q831 280 831 309 L831 547 L419 547 Q401 547 389 559 Q376 572 376 589 L376 732 Q376 749 389 762 Q401 774 419 774 L831 774 L831 1013 ZM441 1423 Q643 1542 882 1542 Q1120 1542 1322 1423 Q1525 1304 1644 1101 Q1763 899 1763 661 Q1763 422 1644 220 Q1525 17 1322 -102 Q1120 -221 882 -221 Q643 -221 441 -102 Q238 17 119 220 Q0 422 0 661 Q0 899 119 1101 Q238 1304 441 1423 ZM1237 1276 Q1074 1372 882 1372 Q690 1372 526 1276 Q363 1180 267 1016 Q171 853 171 661 Q171 469 267 305 Q363 142 526 46 Q690 -50 882 -50 Q1074 -50 1237 46 Q1401 142 1497 305 Q1593 469 1593 661 Q1593 853 1497 1016 Q1401 1180 1237 1276 ZM1400 360 L1400 962 Q1400 978 1391 991 Q1382 1004 1371 1004 L1315 1004 Q1304 1004 1295 991 Q1286 978 1286 962 L1286 360 Q1286 344 1295 331 Q1304 317 1315 317 L1371 317 Q1382 317 1391 331 Q1400 344 1400 360 Z" /><glyph glyph-name="uniE33B" unicode="&#xe33b;" d="M531 616 Q502 616 492 643 Q481 669 499 687 L883 1060 L1265 687 Q1286 669 1276 643 Q1265 616 1236 616 L998 616 L998 203 Q998 185 985 172 Q973 160 955 160 L812 160 Q795 160 782 172 Q770 185 770 203 L770 616 L531 616 ZM119 225 Q0 428 0 667 Q0 905 119 1108 Q239 1312 442 1431 Q645 1550 884 1550 Q1122 1550 1326 1431 Q1529 1312 1648 1108 Q1767 905 1767 667 Q1767 428 1648 225 Q1529 22 1326 -98 Q1122 -217 884 -217 Q645 -217 442 -98 Q239 22 119 225 ZM267 1023 Q171 859 171 667 Q171 474 267 310 Q363 146 527 50 Q691 -46 884 -46 Q1076 -46 1240 50 Q1404 146 1500 310 Q1596 474 1596 667 Q1596 859 1500 1023 Q1404 1187 1240 1283 Q1076 1379 884 1379 Q691 1379 527 1283 Q363 1187 267 1023 ZM1185 1186 L582 1186 Q566 1186 552 1177 Q539 1168 539 1158 L539 1101 Q539 1090 552 1081 Q566 1072 582 1072 L1185 1072 Q1201 1072 1214 1081 Q1228 1090 1228 1101 L1228 1158 Q1228 1168 1214 1177 Q1201 1186 1185 1186 Z" /><glyph glyph-name="uniE33C" unicode="&#xe33c;" d="M1959 -2 Q1973 -13 1973 -30 Q1973 -47 1962 -61 L1908 -122 Q1894 -136 1877 -136 Q1860 -136 1849 -126 L1554 133 Q1494 86 1414 86 L1095 86 Q1095 -6 1032 -70 Q969 -133 876 -133 Q784 -133 720 -70 Q657 -6 657 86 L338 86 Q242 86 176 153 Q109 220 109 312 Q109 408 188 487 Q225 525 242 552 Q273 600 287 668 Q304 754 304 884 Q304 1025 367 1146 Q371 1154 375 1161 Q377 1163 378 1165 L14 1484 Q0 1494 0 1511 Q0 1529 10 1542 L65 1604 Q79 1618 96 1618 Q113 1618 123 1607 L479 1296 Q507 1324 540 1348 Q650 1429 787 1449 Q766 1477 766 1511 Q766 1556 799 1588 Q832 1621 876 1621 Q921 1621 953 1588 Q986 1556 986 1511 Q986 1477 965 1449 Q1102 1429 1212 1348 Q1321 1268 1385 1146 Q1448 1025 1448 884 Q1448 754 1465 668 Q1479 600 1510 552 Q1527 525 1564 487 Q1643 408 1643 312 Q1643 294 1640 277 L1959 -2 ZM672 1237 Q635 1215 604 1186 L1329 550 Q1316 583 1308 621 Q1284 727 1284 884 Q1284 994 1229 1088 Q1174 1182 1080 1237 Q986 1292 876 1292 Q766 1292 672 1237 ZM934 28 Q958 52 958 86 L794 86 Q794 52 818 28 Q842 4 876 4 Q910 4 934 28 ZM1414 251 Q1416 251 1417 251 Q1418 251 1419 251 L505 1053 Q469 974 469 884 Q469 727 445 624 Q424 531 383 466 Q352 422 294 360 Q263 329 278 290 Q294 251 338 251 L1414 251 Z" /><glyph glyph-name="uniE33D" unicode="&#xe33d;" d="M1464 467 Q1426 504 1409 532 Q1378 580 1364 649 Q1347 735 1347 866 Q1347 1007 1283 1130 Q1220 1252 1109 1333 Q999 1414 861 1435 Q882 1462 882 1497 Q882 1541 849 1574 Q816 1607 772 1607 Q727 1607 694 1574 Q661 1541 661 1497 Q661 1462 682 1435 Q544 1414 434 1333 Q324 1252 260 1130 Q196 1007 196 866 Q196 735 179 649 Q165 580 134 532 Q117 504 79 467 Q0 387 0 291 Q0 198 67 131 Q134 64 231 64 L551 64 Q551 -30 615 -93 Q679 -157 772 -157 Q865 -157 928 -93 Q992 -30 992 64 L1313 64 Q1409 64 1476 131 Q1543 198 1543 291 Q1543 387 1464 467 ZM1313 229 L231 229 Q186 229 171 268 Q155 308 186 339 Q245 401 276 446 Q317 511 338 604 Q362 708 362 866 Q362 976 417 1071 Q472 1166 567 1221 Q661 1276 772 1276 Q882 1276 977 1221 Q1071 1166 1126 1071 Q1182 976 1182 866 Q1182 708 1206 601 Q1226 511 1268 446 Q1299 401 1357 339 Q1388 308 1373 268 Q1357 229 1313 229 ZM772 -19 Q737 -19 713 5 Q689 29 689 64 L854 64 Q854 29 830 5 Q806 -19 772 -19 Z" /><glyph glyph-name="uniE33E" unicode="&#xe33e;" d="M1149 1535 L164 1535 Q96 1535 48 1487 Q0 1439 0 1371 L0 -216 L657 167 L1313 -216 L1313 1371 Q1313 1439 1265 1487 Q1217 1535 1149 1535 ZM1149 71 L657 358 L164 71 L164 1350 Q164 1357 171 1364 Q178 1371 185 1371 L1128 1371 Q1135 1371 1142 1364 Q1149 1357 1149 1350 L1149 71 ZM940 1190 L361 1190 Q346 1190 333 1182 Q320 1173 320 1163 L320 1108 Q320 1098 333 1089 Q346 1081 361 1081 L940 1081 Q955 1081 968 1089 Q981 1098 981 1108 L981 1163 Q981 1173 968 1182 Q955 1190 940 1190 Z" /><glyph glyph-name="uniE33F" unicode="&#xe33f;" d="M1720 -234 L1720 -125 Q1720 -110 1710 -99 Q1699 -89 1684 -89 L1032 -89 L1032 1457 Q1035 1487 1012 1508 Q990 1529 963 1529 L169 1314 Q161 1313 156 1311 Q144 1309 137.5 1307 Q131 1305 127 1302 Q123 1299 116 1293 Q94 1272 97 1242 L97 -89 L36 -89 Q21 -89 11 -99 Q0 -110 0 -125 L0 -234 L1720 -234 ZM890 -86 L242 -86 L242 1212 L890 1381 L890 -86 ZM312 988 L312 867 Q312 852 322 841 Q333 831 348 831 L469 831 Q484 831 495 841 Q505 852 505 867 L505 988 Q505 1003 495 1014 Q484 1024 469 1024 L348 1024 Q333 1024 322 1014 Q312 1003 312 988 ZM469 540 L348 540 Q333 540 322 551 Q312 561 312 577 L312 698 Q312 713 322 723 Q333 734 348 734 L469 734 Q484 734 495 723 Q505 713 505 698 L505 577 Q505 561 495 551 Q484 540 469 540 ZM505 407 L505 286 Q505 271 495 261 Q484 250 469 250 L348 250 Q333 250 322 261 Q312 271 312 286 L312 407 Q312 422 322 433 Q333 444 348 444 L469 444 Q484 444 495 433 Q505 422 505 407 ZM781 831 L660 831 Q645 831 634 841 Q624 852 624 867 L624 988 Q624 1003 634 1014 Q645 1024 660 1024 L781 1024 Q796 1024 806 1014 Q817 1003 817 988 L817 867 Q817 852 806 841 Q796 831 781 831 ZM781 540 L660 540 Q645 540 634 551 Q624 561 624 577 L624 698 Q624 713 634 723 Q645 734 660 734 L781 734 Q796 734 806 723 Q817 713 817 698 L817 577 Q817 561 806 551 Q796 540 781 540 ZM781 250 L660 250 Q645 250 634 261 Q624 271 624 286 L624 407 Q624 422 634 433 Q645 444 660 444 L781 444 Q796 444 806 433 Q817 422 817 407 L817 286 Q817 271 806 261 Q796 250 781 250 ZM1580 1064 Q1605 1044 1604 1016 L1604 -89 L1459 -91 L1459 981 L1209 1112 L1209 -93 L1066 -89 L1066 1231 Q1063 1261 1086 1282 Q1109 1304 1136 1304 L1531 1089 Q1541 1084 1548 1080.5 Q1555 1077 1560 1074.5 Q1565 1072 1568.5 1070 Q1572 1068 1574.5 1067 Q1577 1066 1578.5 1065 Q1580 1064 1580 1064 ZM1396 444 Q1411 444 1421 433 Q1432 422 1432 407 L1432 286 Q1432 271 1421 261 Q1411 250 1396 250 L1275 250 Q1260 250 1249 261 Q1238 271 1238 286 L1238 407 Q1238 422 1249 433 Q1260 444 1275 444 L1396 444 ZM1432 698 L1432 577 Q1432 561 1421 551 Q1411 540 1396 540 L1275 540 Q1260 540 1249 551 Q1238 561 1238 577 L1238 698 Q1238 713 1249 723 Q1260 734 1275 734 L1396 734 Q1411 734 1421 723 Q1432 713 1432 698 ZM817 1255 L817 1134 Q817 1119 806 1108 Q796 1098 781 1098 L660 1098 Q645 1098 634 1108 Q624 1119 624 1134 L624 1255 Q624 1270 634 1281 Q645 1291 660 1291 L781 1291 Q796 1291 806 1281 Q817 1270 817 1255 Z" /><glyph glyph-name="uniE340" unicode="&#xe340;" d="M1708 -67 L1708 1275 Q1708 1351 1655 1404 Q1601 1458 1525 1458 L1342 1458 L1342 1656 Q1342 1675 1329 1688 Q1315 1702 1296 1702 L1144 1702 Q1125 1702 1111 1688 Q1098 1675 1098 1656 L1098 1458 L610 1458 L610 1656 Q610 1675 597 1688 Q583 1702 564 1702 L412 1702 Q393 1702 379 1688 Q366 1675 366 1656 L366 1458 L183 1458 Q107 1458 53 1404 Q0 1351 0 1275 L0 -67 Q0 -143 53 -197 Q107 -250 183 -250 L1525 -250 Q1601 -250 1655 -197 Q1708 -143 1708 -67 ZM1525 1092 L1525 -44 Q1525 -52 1517 -60 Q1510 -67 1502 -67 L206 -67 Q198 -67 191 -60 Q183 -52 183 -44 L183 1092 L1525 1092 ZM425 726 L1281 726 Q1304 726 1323 735 Q1342 745 1342 756 L1342 817 Q1342 829 1323 838 Q1304 848 1281 848 L425 848 Q402 848 383 838 Q363 829 363 817 L363 756 Q363 745 383 735 Q402 726 425 726 ZM425 482 L1281 482 Q1304 482 1323 491 Q1342 501 1342 512 L1342 573 Q1342 585 1323 594 Q1304 604 1281 604 L425 604 Q402 604 383 594 Q363 585 363 573 L363 512 Q363 501 383 491 Q402 482 425 482 ZM403 238 L938 238 Q952 238 964 247 Q976 257 976 268 L976 329 Q976 341 964 350 Q952 360 938 360 L403 360 Q389 360 377 350 Q365 341 365 329 L365 268 Q365 257 377 247 Q389 238 403 238 Z" /><glyph glyph-name="uniE341" unicode="&#xe341;" d="M1208 957 Q1227 957 1242 942 L1325 859 Q1340 844 1340 825 Q1340 806 1325 795 L788 257 Q773 246 754 246 Q735 246 723 261 L439 545 Q424 560 424 579 Q424 598 439 609 L527 696 Q538 708 557 708 Q576 708 591 696 L757 526 L1178 942 Q1189 957 1208 957 ZM1696 -65 L1696 1268 Q1696 1344 1643 1397 Q1590 1450 1514 1450 L1333 1450 L1333 1646 Q1333 1665 1319 1679 Q1306 1692 1287 1692 L1136 1692 Q1117 1692 1103 1679 Q1090 1665 1090 1646 L1090 1450 L606 1450 L606 1646 Q606 1665 592 1679 Q579 1692 560 1692 L409 1692 Q390 1692 377 1679 Q363 1665 363 1646 L363 1450 L182 1450 Q106 1450 53 1397 Q0 1344 0 1268 L0 -65 Q0 -140 53 -193 Q106 -246 182 -246 L1514 -246 Q1590 -246 1643 -193 Q1696 -140 1696 -65 ZM1514 1086 L1514 -42 Q1514 -50 1507 -57 Q1499 -65 1492 -65 L204 -65 Q197 -65 189 -57 Q182 -50 182 -42 L182 1086 L1514 1086 Z" /><glyph glyph-name="uniE342" unicode="&#xe342;" d="M1694 -62 L1694 1268 Q1694 1344 1641 1397 Q1588 1450 1512 1450 L1331 1450 L1331 1646 Q1331 1665 1318 1679 Q1304 1692 1285 1692 L1134 1692 Q1115 1692 1102 1679 Q1089 1665 1089 1646 L1089 1450 L605 1450 L605 1646 Q605 1665 592 1679 Q578 1692 560 1692 L408 1692 Q389 1692 376 1679 Q363 1665 363 1646 L363 1450 L181 1450 Q106 1450 53 1397 Q0 1344 0 1268 L0 -62 Q0 -138 53 -191 Q106 -244 181 -244 L1512 -244 Q1588 -244 1641 -191 Q1694 -138 1694 -62 ZM1512 1087 L1512 -40 Q1512 -47 1505 -55 Q1497 -62 1490 -62 L204 -62 Q197 -62 189 -55 Q181 -47 181 -40 L181 1087 L1512 1087 ZM437 465 Q450 452 469 452 L1225 452 Q1244 452 1257 465 Q1270 478 1270 497 L1270 588 Q1270 607 1257 620 Q1244 633 1225 633 L469 633 Q450 633 437 620 Q423 607 423 588 L423 497 Q423 478 437 465 Z" /><glyph glyph-name="uniE343" unicode="&#xe343;" d="M1693 -59 L1693 1272 Q1693 1347 1641 1400 Q1588 1453 1512 1453 L1331 1453 L1331 1650 Q1331 1669 1317 1682 Q1304 1695 1285 1695 L1134 1695 Q1115 1695 1102 1682 Q1089 1669 1089 1650 L1089 1453 L605 1453 L605 1650 Q605 1669 592 1682 Q578 1695 559 1695 L408 1695 Q389 1695 376 1682 Q363 1669 363 1650 L363 1453 L181 1453 Q106 1453 53 1400 Q0 1347 0 1272 L0 -59 Q0 -134 53 -187 Q106 -240 181 -240 L1512 -240 Q1588 -240 1641 -187 Q1693 -134 1693 -59 ZM1512 1090 L1512 -36 Q1512 -44 1504 -51 Q1497 -59 1489 -59 L204 -59 Q197 -59 189 -51 Q181 -44 181 -36 L181 1090 L1512 1090 ZM1270 501 L1270 591 Q1270 610 1257 623 Q1244 637 1225 637 L937 637 L937 924 Q937 943 924 956 Q911 969 892 969 L801 969 Q782 969 769 956 Q756 943 756 924 L756 637 L469 637 Q450 637 437 623 Q423 610 423 591 L423 501 Q423 482 437 468 Q450 455 469 455 L756 455 L756 168 Q756 149 769 136 Q782 123 801 123 L892 123 Q911 123 924 136 Q937 149 937 168 L937 455 L1225 455 Q1244 455 1257 468 Q1270 482 1270 501 Z" /><glyph glyph-name="uniE344" unicode="&#xe344;" d="M1700 -56 L1700 1280 Q1700 1356 1647 1409 Q1594 1462 1518 1462 L1336 1462 L1336 1659 Q1336 1678 1322 1692 Q1309 1705 1290 1705 L1138 1705 Q1119 1705 1106 1692 Q1093 1678 1093 1659 L1093 1462 L607 1462 L607 1659 Q607 1678 594 1692 Q581 1705 562 1705 L410 1705 Q391 1705 378 1692 Q364 1678 364 1659 L364 1462 L182 1462 Q106 1462 53 1409 Q0 1356 0 1280 L0 -56 Q0 -132 53 -185 Q106 -238 182 -238 L1518 -238 Q1594 -238 1647 -185 Q1700 -132 1700 -56 ZM1518 1098 L1518 -33 Q1518 -41 1510 -48 Q1503 -56 1495 -56 L205 -56 Q197 -56 190 -48 Q182 -41 182 -33 L182 1098 L1518 1098 ZM1119 217 L1184 282 Q1195 297 1195 316 Q1195 335 1184 346 L979 551 L1184 756 Q1195 768 1195 787 Q1195 806 1184 821 L1119 885 Q1104 897 1085 897 Q1066 897 1055 885 L850 680 L645 885 Q634 897 615 897 Q596 897 581 885 L516 821 Q505 806 505 787 Q505 768 516 756 L721 551 L516 346 Q505 335 505 316 Q505 297 516 282 L581 217 Q596 206 615 206 Q634 206 645 217 L850 422 L1055 217 Q1066 206 1085 206 Q1104 206 1119 217 Z" /><glyph glyph-name="uniE345" unicode="&#xe345;" d="M1522 1465 L1068 1465 L1068 1663 Q1068 1682 1055 1695 Q1041 1709 1022 1709 L640 1709 Q621 1709 608 1695 Q595 1682 595 1663 L595 1465 L183 1465 Q107 1465 53 1412 Q0 1359 0 1283 L0 -56 Q0 -132 53 -186 Q107 -239 183 -239 L1522 -239 Q1598 -239 1651 -186 Q1704 -132 1704 -56 L1704 1283 Q1704 1359 1651 1412 Q1598 1465 1522 1465 ZM1499 -56 L205 -56 Q198 -56 190 -49 Q183 -41 183 -34 L183 1100 L1522 1100 L1522 -34 Q1522 -41 1514 -49 Q1506 -56 1499 -56 Z" /><glyph glyph-name="uniE346" unicode="&#xe346;" d="M1690 34 L1690 1362 Q1690 1438 1637 1490 Q1585 1543 1509 1543 L181 1543 Q106 1543 53 1490 Q0 1438 0 1362 L0 34 Q0 -41 53 -94 Q106 -147 181 -147 L1509 -147 Q1585 -147 1637 -94 Q1690 -41 1690 34 ZM1509 1339 L1509 57 Q1509 49 1502 42 Q1494 34 1486 34 L204 34 Q196 34 189 42 Q181 49 181 57 L181 1339 Q181 1347 189 1355 Q196 1362 204 1362 L1486 1362 Q1494 1362 1502 1355 Q1509 1347 1509 1339 ZM845 403 L441 800 Q419 823 430 851 Q441 879 472 879 L1219 879 Q1249 879 1260 851 Q1271 823 1249 800 L845 403 Z" /><glyph glyph-name="uniE347" unicode="&#xe347;" d="M1680 45 L1680 1365 Q1680 1440 1628 1493 Q1575 1545 1500 1545 L180 1545 Q105 1545 53 1493 Q0 1440 0 1365 L0 45 Q0 -30 53 -83 Q105 -135 180 -135 L1500 -135 Q1575 -135 1628 -83 Q1680 -30 1680 45 ZM1500 1343 L1500 68 Q1500 60 1493 53 Q1485 45 1478 45 L203 45 Q195 45 188 53 Q180 60 180 68 L180 1343 Q180 1350 188 1358 Q195 1365 203 1365 L1478 1365 Q1485 1365 1493 1358 Q1500 1350 1500 1343 ZM549 705 L944 1106 Q966 1129 994 1118 Q1023 1106 1023 1076 L1023 334 Q1023 304 994 293 Q966 281 944 304 L549 705 Z" /><glyph glyph-name="uniE348" unicode="&#xe348;" d="M1669 51 L1669 1362 Q1669 1437 1617 1489 Q1565 1541 1490 1541 L179 1541 Q104 1541 52 1489 Q0 1437 0 1362 L0 51 Q0 -24 52 -76 Q104 -128 179 -128 L1490 -128 Q1565 -128 1617 -76 Q1669 -24 1669 51 ZM1490 1340 L1490 73 Q1490 66 1483 58 Q1475 51 1468 51 L201 51 Q194 51 186 58 Q179 66 179 73 L179 1340 Q179 1347 186 1355 Q194 1362 201 1362 L1468 1362 Q1475 1362 1483 1355 Q1490 1347 1490 1340 ZM1126 707 L734 308 Q712 286 684 297 Q656 308 656 338 L656 1075 Q656 1105 684 1116 Q712 1128 734 1105 L1126 707 Z" /><glyph glyph-name="uniE349" unicode="&#xe349;" d="M835 998 L1233 606 Q1256 584 1244 556 Q1233 528 1203 528 L466 528 Q436 528 425 556 Q414 584 436 606 L835 998 ZM1617 1489 Q1669 1437 1669 1362 L1669 51 Q1669 -24 1617 -76 Q1565 -128 1490 -128 L179 -128 Q104 -128 52 -76 Q0 -24 0 51 L0 1362 Q0 1437 52 1489 Q104 1541 179 1541 L1490 1541 Q1565 1541 1617 1489 ZM1490 73 L1490 1340 Q1490 1347 1483 1355 Q1475 1362 1468 1362 L201 1362 Q194 1362 186 1355 Q179 1347 179 1340 L179 73 Q179 66 186 58 Q194 51 201 51 L1468 51 Q1475 51 1483 58 Q1490 66 1490 73 Z" /><glyph glyph-name="uniE34A" unicode="&#xe34a;" d="M1702 149 Q1690 161 1674 161 L161 161 L161 1245 Q161 1262 149 1274 Q137 1285 121 1285 L40 1285 Q23 1285 12 1274 Q0 1262 0 1245 L0 40 Q0 23 12 12 Q23 0 40 0 L1674 0 Q1690 0 1702 12 Q1714 23 1714 40 L1714 121 Q1714 137 1702 149 ZM1390 1021 Q1380 1027 1382 1039 Q1385 1051 1395 1053 L1618 1098 L1669 877 Q1672 866 1662 859 Q1652 852 1642 858 L1390 1021 ZM1465 978 Q1501 1005 1529.5 994 Q1558 983 1565.5 953.5 Q1573 924 1549 894 Q1521 860 1489 813 Q1447 750 1397.5 694.5 Q1348 639 1287 628 Q1233 623 1185 645.5 Q1137 668 1090 700 Q1050 727 1010 748 Q970 769 927 770 Q862 769 824.5 728 Q787 687 759 632 Q728 568 680 521 Q547 409 378 417 Q340 422 327.5 450 Q315 478 327.5 505.5 Q340 533 378 536 Q440 538 500 555.5 Q560 573 608 616 Q650 658 680 710 Q692 731 706 750 Q713 762 720 772 Q744 809 768.5 834 Q793 859 840 875 Q911 896 989 875.5 Q1067 855 1128 816 Q1181 779 1238 767.5 Q1295 756 1343 806 Q1374 842 1405 892 Q1434 942 1465 978 Z" /><glyph glyph-name="uniE34B" unicode="&#xe34b;" d="M1593 1434 Q1611 1434 1625 1420 L1702 1343 Q1716 1329 1716 1311 Q1716 1294 1702 1283 L988 573 Q974 559 956 559 Q939 559 928 573 L609 891 Q595 905 595 923 Q595 940 609 951 L690 1032 Q700 1042 718 1042 Q735 1042 749 1032 L956 818 L1565 1423 Q1576 1434 1593 1434 ZM1619 996 Q1634 1010 1651.5 1005.5 Q1669 1001 1676 983 Q1701 908 1719.5 821 Q1738 734 1738 666 Q1738 397 1584 175 Q1492 42 1360 -49 Q1137 -203 869 -203 Q600 -203 378 -49 Q245 42 154 175 Q0 397 0 666 Q0 934 154 1157 Q245 1289 378 1381 Q600 1535 869 1535 Q947 1535 1014 1520.5 Q1081 1506 1122.5 1492 Q1164 1478 1164 1478 Q1168 1476 1189.5 1466 Q1211 1456 1239 1443 Q1267 1430 1291 1418 Q1307 1410 1310.5 1393.5 Q1314 1377 1302 1363 L1219 1272 Q1058 1366 869 1366 Q643 1366 457 1231 Q368 1167 303 1078 Q168 892 168 666 Q168 440 303 254 Q368 165 457 100 Q643 -35 869 -35 Q1095 -35 1281 100 Q1370 165 1434 254 Q1569 440 1569 666 Q1569 749 1563.5 790.5 Q1558 832 1530 909 L1619 996 Z" /><glyph glyph-name="uniE34C" unicode="&#xe34c;" d="M1480 925 L1610 1057 Q1624 1070 1640.5 1063 Q1657 1056 1657 1038 L1657 61 Q1657 -13 1605 -65 Q1554 -117 1480 -117 L178 -117 Q104 -117 52 -65 Q0 -13 0 61 L0 1363 Q0 1437 52 1488 Q104 1540 178 1540 L1357 1540 Q1376 1540 1382.5 1523 Q1389 1506 1376 1492 L1237 1363 L178 1363 L178 61 L1480 61 L1480 925 ZM1528 1435 Q1546 1435 1561 1420 L1642 1338 Q1657 1324 1657 1305 Q1657 1287 1642 1276 L1006 643 Q991 628 973 628 Q954 628 943 643 L607 980 Q592 994 592 1013 Q592 1031 607 1043 L692 1128 Q703 1139 721 1139 Q740 1139 755 1128 L973 902 L1498 1420 Q1509 1435 1528 1435 Z" /><glyph glyph-name="uniE34D" unicode="&#xe34d;" d="M889 1537 Q649 1537 445 1416 Q240 1296 120 1092 Q0 888 0 647 Q0 407 120 203 Q240 -2 445 -122 Q649 -242 889 -242 Q1130 -242 1334 -122 Q1538 -2 1658 203 Q1779 407 1779 647 Q1779 888 1658 1092 Q1538 1296 1334 1416 Q1130 1537 889 1537 ZM889 -70 Q696 -70 531 27 Q366 124 269 289 Q172 454 172 647 Q172 841 269 1006 Q366 1171 531 1268 Q696 1364 889 1364 Q1083 1364 1248 1268 Q1413 1171 1510 1006 Q1606 841 1606 647 Q1606 454 1510 289 Q1413 124 1248 27 Q1083 -70 889 -70 Z" /><glyph glyph-name="uniE34E" unicode="&#xe34e;" d="M1658 1097 Q1779 893 1779 652 Q1779 412 1658 208 Q1538 3 1334 -117 Q1130 -237 889 -237 Q649 -237 445 -117 Q240 3 120 208 Q0 412 0 652 Q0 893 120 1097 Q240 1301 445 1421 Q649 1542 889 1542 Q1130 1542 1334 1421 Q1538 1301 1658 1097 ZM1510 294 Q1606 459 1606 652 Q1606 846 1510 1011 Q1413 1176 1248 1273 Q1083 1369 889 1369 Q696 1369 531 1273 Q366 1176 269 1011 Q172 846 172 652 Q172 459 269 294 Q366 129 531 32 Q696 -65 889 -65 Q1083 -65 1248 32 Q1413 129 1510 294 ZM1237 773 L913 520 Q892 510 873 520 L476 942 Q474 944 472 946 Q459 958 454 971 Q450 987 460 1003 L515 1057 Q518 1060 520 1063 Q528 1071 532 1074 Q536 1077 543 1078 Q560 1081 576 1073 L895 735 L1143 924 Q1159 931 1176 925 Q1183 922 1188 917 Q1193 912 1198 905 Q1199 904 1200 902 L1255 832 Q1263 815 1258 798 Q1256 792 1252.5 788 Q1249 784 1245 780 Q1241 777 1237 773 Z" /><glyph glyph-name="uniE34F" unicode="&#xe34f;" d="M890 1543 Q650 1543 445 1422 Q241 1302 120 1097 Q0 893 0 652 Q0 412 120 207 Q241 3 445 -118 Q650 -238 890 -238 Q1131 -238 1335 -118 Q1540 3 1660 207 Q1781 412 1781 652 Q1781 893 1660 1097 Q1540 1302 1335 1422 Q1131 1543 890 1543 ZM890 -66 Q696 -66 531 31 Q366 128 269 293 Q172 458 172 652 Q172 846 269 1011 Q366 1176 531 1273 Q696 1370 890 1370 Q1084 1370 1249 1273 Q1414 1176 1511 1011 Q1608 846 1608 652 Q1608 458 1511 293 Q1414 128 1249 31 Q1084 -66 890 -66 ZM1274 297 Q1228 247 1156 211 Q1037 150 901 150 Q757 150 643 216 Q528 283 463 397 Q398 512 398 654 Q398 796 463 911 Q528 1026 643 1092 Q757 1158 901 1158 Q1027 1158 1138 1105 Q1203 1076 1249 1033 Q1260 1022 1262 1006 Q1264 990 1256 979 L1192 875 Q1181 861 1163 857 Q1145 853 1127 868 Q1027 947 908 947 Q779 947 704 864 Q628 782 628 660 Q628 537 700 455 Q779 358 908 358 Q984 358 1059 397 Q1106 423 1145 455 Q1159 469 1177 467 Q1195 466 1210 451 L1282 354 Q1289 340 1287 324 Q1285 308 1274 297 Z" /><glyph glyph-name="uniE350" unicode="&#xe350;" d="M1663 1095 Q1784 890 1784 649 Q1784 408 1663 203 Q1543 -2 1338 -122 Q1133 -243 892 -243 Q651 -243 446 -122 Q241 -2 120 203 Q0 408 0 649 Q0 890 120 1095 Q241 1300 446 1420 Q651 1541 892 1541 Q1133 1541 1338 1420 Q1543 1300 1663 1095 ZM1514 289 Q1611 455 1611 649 Q1611 843 1514 1008 Q1417 1174 1251 1271 Q1086 1368 892 1368 Q698 1368 532 1271 Q367 1174 270 1008 Q173 843 173 649 Q173 455 270 289 Q367 124 532 27 Q698 -70 892 -70 Q1086 -70 1251 27 Q1417 124 1514 289 ZM892 468 Q966 468 1019 521 Q1072 575 1072 649 Q1072 723 1019 776 Q966 829 892 829 Q818 829 764 776 Q711 723 711 649 Q711 575 764 521 Q818 468 892 468 ZM892 757 Q937 757 968 725 Q1000 694 1000 649 Q1000 604 968 573 Q937 541 892 541 Q847 541 816 573 Q784 604 784 649 Q784 694 816 725 Q847 757 892 757 ZM892 275 Q1045 275 1156 385 Q1265 495 1265 649 Q1265 802 1156 913 Q1045 1023 892 1023 Q738 1023 628 913 Q518 802 518 649 Q518 495 628 385 Q738 275 892 275 ZM892 872 Q985 872 1049 806 Q1115 742 1115 649 Q1115 556 1049 491 Q985 426 892 426 Q799 426 734 491 Q668 556 668 649 Q668 742 734 806 Q799 872 892 872 Z" /><glyph glyph-name="uniE351" unicode="&#xe351;" d="M1667 1098 Q1788 892 1788 651 Q1788 409 1667 204 Q1546 -1 1341 -122 Q1135 -243 894 -243 Q652 -243 447 -122 Q241 -1 121 204 Q0 409 0 651 Q0 892 121 1098 Q241 1303 447 1424 Q652 1545 894 1545 Q1135 1545 1341 1424 Q1546 1303 1667 1098 ZM1517 290 Q1615 456 1615 651 Q1615 845 1517 1011 Q1420 1177 1254 1274 Q1088 1372 894 1372 Q699 1372 533 1274 Q368 1177 270 1011 Q173 845 173 651 Q173 456 270 290 Q368 125 533 27 Q699 -70 894 -70 Q1088 -70 1254 27 Q1420 125 1517 290 ZM578 104 L1074 502 Q1102 525 1112 561 L1242 1181 L723 797 L721 795 Q693 773 683 737 L578 104 ZM791 708 Q791 708 791 708 Q791 708 791 708 L1072 916 L1004 591 Q1004 590 1004 590 Q1004 590 1004 590 L736 375 L791 708 ZM934 605 Q951 622 951 645 Q951 669 934 686 Q917 703 894 703 Q870 703 853 686 Q836 669 836 645 Q836 622 853 605 Q870 588 894 588 Q917 588 934 605 ZM960 584 Q988 612 988 651 Q988 689 960 717 Q932 746 894 746 Q855 746 827 717 Q799 689 799 651 Q799 612 827 584 Q855 556 894 556 Q932 556 960 584 ZM960 584 Q988 612 988 651 Q988 689 960 717 Q932 746 894 746 Q855 746 827 717 Q799 689 799 651 Q799 612 827 584 Q855 556 894 556 Q932 556 960 584 Z" /><glyph glyph-name="uniE352" unicode="&#xe352;" d="M893 1547 Q652 1547 446 1426 Q241 1305 121 1100 Q0 895 0 654 Q0 413 121 207 Q241 2 446 -118 Q652 -239 893 -239 Q1134 -239 1339 -118 Q1544 2 1665 207 Q1786 413 1786 654 Q1786 895 1665 1100 Q1544 1305 1339 1426 Q1134 1547 893 1547 ZM893 -66 Q698 -66 533 31 Q367 128 270 294 Q173 459 173 654 Q173 848 270 1014 Q367 1179 533 1277 Q698 1374 893 1374 Q1087 1374 1253 1277 Q1418 1179 1516 1014 Q1613 848 1613 654 Q1613 459 1516 294 Q1418 128 1253 31 Q1087 -66 893 -66 ZM893 481 Q785 481 688 436 Q590 391 518 305 Q497 279 500 243 Q504 207 531 184 Q558 161 594 164 Q630 168 652 197 Q698 251 761 279 Q824 308 893 308 Q961 308 1024 279 Q1087 251 1134 197 Q1159 164 1199 164 Q1231 164 1256 186 Q1282 207 1285 243 Q1289 279 1267 305 Q1195 391 1098 436 Q1001 481 893 481 ZM662 762 Q642 782 613 782 Q584 782 564 762 Q535 733 498 746 Q460 759 449 795 Q437 831 469 863 Q529 920 613 920 Q696 920 757 863 Q788 831 777 795 Q765 759 729 746 Q693 733 662 762 ZM1225 762 Q1205 782 1176 782 Q1147 782 1127 762 Q1098 733 1061 746 Q1024 759 1012 795 Q1001 831 1032 863 Q1093 920 1176 920 Q1259 920 1320 863 Q1351 831 1340 795 Q1328 759 1293 746 Q1257 733 1225 762 Z" /><glyph glyph-name="uniE353" unicode="&#xe353;" d="M887 1542 Q648 1542 444 1422 Q240 1302 120 1098 Q0 894 0 654 Q0 415 120 211 Q240 7 444 -113 Q648 -233 887 -233 Q1127 -233 1331 -113 Q1535 7 1655 211 Q1775 415 1775 654 Q1775 894 1655 1098 Q1535 1302 1331 1422 Q1127 1542 887 1542 ZM887 -61 Q694 -61 529 35 Q365 132 268 297 Q172 461 172 654 Q172 848 268 1012 Q365 1177 529 1273 Q694 1370 887 1370 Q1080 1370 1245 1273 Q1410 1177 1506 1012 Q1603 848 1603 654 Q1603 461 1506 297 Q1410 132 1245 35 Q1080 -61 887 -61 ZM586 750 Q639 750 678 772 Q717 795 717 826 Q717 857 678 880 Q639 903 586 903 Q533 903 494 880 Q456 857 456 826 Q456 795 494 772 Q533 750 586 750 ZM1188 903 Q1135 903 1096 880 Q1058 857 1058 826 Q1058 795 1096 772 Q1135 750 1188 750 Q1241 750 1280 772 Q1319 795 1319 826 Q1319 857 1280 880 Q1241 903 1188 903 ZM486 350 Q498 338 516 338 L1219 338 Q1237 338 1249 350 Q1262 363 1262 381 L1262 495 Q1262 513 1249 526 Q1237 538 1219 538 L516 538 Q498 538 486 526 Q473 513 473 495 L473 381 Q473 363 486 350 Z" /><glyph glyph-name="uniE354" unicode="&#xe354;" d="M891 -237 Q645 -237 443 -117 Q241 3 120.5 205.5 Q0 408 0 654 Q0 900 120.5 1102.5 Q241 1305 443 1425 Q645 1545 891 1545 Q1137 1545 1339.5 1425 Q1542 1305 1662.5 1102.5 Q1783 900 1783 654 Q1783 408 1662.5 205.5 Q1542 3 1339.5 -117 Q1137 -237 891 -237 ZM1642 519 Q1649 551 1638 563.5 Q1627 576 1602 574 Q1506 579 1413 564 Q1254 534 1180 441.5 Q1106 349 1080 165 Q1063 44 1053 -69 Q1051 -89 1050 -108 Q1274 -56 1431 106 Q1596 275 1642 519 ZM167 910 Q151 851 209 854 Q261 856 334 858 Q407 860 480 862 Q613 864 661 866 Q584 777 584 657 Q584 526 674 433 Q704 402 741 381 Q812 340 891 340 Q970 340 1042 381 Q1079 402 1109 433 Q1199 526 1199 657 Q1199 777 1122 866 Q1170 864 1302 862 Q1375 860 1448.5 858 Q1522 856 1574 854 Q1631 851 1616 910 Q1557 1088 1431 1218 Q1325 1326 1183 1379.5 Q1041 1433 891 1433 Q741 1433 599.5 1379.5 Q458 1326 351 1218 Q225 1088 167 910 ZM180 574 Q156 576 144.5 563.5 Q133 551 140 519 Q187 275 351 106 Q509 -56 733 -108 Q731 -89 729 -69 Q720 44 703 165 Q677 349 603 441.5 Q529 534 369 564 Q277 579 180 574 ZM719 479 Q647 552 647 657 Q647 761 719 834 Q795 903 891 903 Q987 903 1064 834 Q1135 761 1135 657 Q1135 552 1064 479 Q1038 452 1006 435 Q891 376 777 435 Q744 452 719 479 ZM853 753 Q791 722 791 657 Q791 596 847 564 Q891 543 936 564 Q992 596 992 657 Q992 722 929 753 Q891 768 853 753 Z" /><glyph glyph-name="uniE355" unicode="&#xe355;" d="M891 -240 Q1132 -240 1337 -120 Q1542 1 1662 206 Q1783 411 1783 651 Q1783 892 1662 1097 Q1542 1302 1337 1422 Q1132 1543 891 1543 Q650 1543 446 1422 Q241 1302 120 1097 Q0 892 0 651 Q0 411 120 206 Q241 1 446 -120 Q650 -240 891 -240 ZM277 1021 L467 831 Q431 745 431 651 Q431 558 467 472 L277 281 Q173 450 173 651 Q173 853 277 1021 ZM1261 1266 L1071 1075 Q985 1111 891 1111 Q798 1111 712 1075 L521 1266 Q690 1370 891 1370 Q1093 1370 1261 1266 ZM521 37 L712 227 Q798 191 891 191 Q985 191 1071 227 L1261 37 Q1093 -67 891 -67 Q690 -67 521 37 ZM1124 651 Q1124 555 1056 487 Q987 419 891 419 Q795 419 727 487 Q659 555 659 651 Q659 747 727 816 Q795 884 891 884 Q987 884 1056 816 Q1124 747 1124 651 ZM1506 281 L1315 472 Q1351 558 1351 651 Q1351 745 1315 831 L1506 1021 Q1610 853 1610 651 Q1610 450 1506 281 Z" /><glyph glyph-name="uniE356" unicode="&#xe356;" d="M1775 655 Q1775 895 1655 1099 Q1535 1303 1331 1423 Q1127 1543 887 1543 Q648 1543 444 1423 Q240 1303 120 1099 Q0 895 0 655 Q0 416 120 212 Q240 8 444 -112 Q648 -232 887 -232 Q1127 -232 1331 -112 Q1535 8 1655 212 Q1775 416 1775 655 ZM172 655 Q172 849 268 1013 Q365 1178 529 1274 Q694 1371 887 1371 Q1080 1371 1245 1274 Q1410 1178 1506 1013 Q1603 849 1603 655 Q1603 462 1506 298 Q1410 133 1245 36 Q1080 -60 887 -60 Q694 -60 529 36 Q365 133 268 298 Q172 462 172 655 ZM1231 942 L1231 369 Q1231 344 1215 328 Q1199 312 1173 312 L601 312 Q576 312 560 328 Q544 344 544 369 L544 942 Q544 967 560 983 Q576 999 601 999 L1173 999 Q1199 999 1215 983 Q1231 967 1231 942 Z" /><glyph glyph-name="uniE357" unicode="&#xe357;" d="M884 1535 Q645 1535 442 1415 Q239 1296 119 1093 Q0 890 0 651 Q0 412 119 209 Q239 6 442 -114 Q645 -233 884 -233 Q1123 -233 1326 -114 Q1529 6 1648 209 Q1768 412 1768 651 Q1768 890 1648 1093 Q1529 1296 1326 1415 Q1123 1535 884 1535 ZM884 -62 Q691 -62 527 34 Q363 131 267 294 Q171 458 171 651 Q171 843 267 1007 Q363 1171 527 1267 Q691 1364 884 1364 Q1076 1364 1240 1267 Q1404 1171 1500 1007 Q1596 843 1596 651 Q1596 458 1500 294 Q1404 131 1240 34 Q1076 -62 884 -62 ZM1183 448 Q1126 384 1048 346 Q969 309 884 309 Q798 309 720 346 Q641 384 584 448 Q563 476 527 480 Q492 483 465 460 Q438 437 435 401 Q431 366 453 341 Q535 245 647 191 Q759 138 884 138 Q1008 138 1121 191 Q1233 245 1315 341 Q1336 366 1333 401 Q1329 437 1302 460 Q1276 483 1240 480 Q1204 476 1183 448 ZM599 708 Q645 708 679 742 Q713 776 713 822 Q713 868 679 902 Q645 936 599 936 Q552 936 518 902 Q485 868 485 822 Q485 776 518 742 Q552 708 599 708 ZM1169 708 Q1215 708 1249 742 Q1283 776 1283 822 Q1283 868 1249 902 Q1215 936 1169 936 Q1123 936 1089 902 Q1055 868 1055 822 Q1055 776 1089 742 Q1123 708 1169 708 Z" /><glyph glyph-name="uniE358" unicode="&#xe358;" d="M893 1548 Q652 1548 446 1427 Q241 1306 121 1101 Q0 896 0 655 Q0 414 121 208 Q241 3 446 -117 Q652 -238 893 -238 Q1134 -238 1339 -117 Q1544 3 1665 208 Q1786 414 1786 655 Q1786 896 1665 1101 Q1544 1306 1339 1427 Q1134 1548 893 1548 ZM893 -65 Q698 -65 533 32 Q367 129 270 295 Q173 460 173 655 Q173 849 270 1015 Q367 1180 533 1278 Q698 1375 893 1375 Q1087 1375 1253 1278 Q1418 1180 1516 1015 Q1613 849 1613 655 Q1613 460 1516 295 Q1418 129 1253 32 Q1087 -65 893 -65 ZM835 943 L835 367 Q835 342 819 325 Q803 309 778 309 L605 309 Q580 309 563 325 Q547 342 547 367 L547 943 Q547 968 563 984 Q580 1000 605 1000 L778 1000 Q803 1000 819 984 Q835 968 835 943 ZM1238 943 L1238 367 Q1238 342 1222 325 Q1206 309 1181 309 L1008 309 Q983 309 967 325 Q950 342 950 367 L950 943 Q950 968 967 984 Q983 1000 1008 1000 L1181 1000 Q1206 1000 1222 984 Q1238 968 1238 943 Z" /><glyph glyph-name="uniE359" unicode="&#xe359;" d="M1776 650 Q1776 890 1656 1094 Q1536 1298 1332 1418 Q1128 1538 888 1538 Q648 1538 444 1418 Q240 1298 120 1094 Q0 890 0 650 Q0 410 120 206 Q240 2 444 -118 Q648 -238 888 -238 Q1128 -238 1332 -118 Q1536 2 1656 206 Q1776 410 1776 650 ZM172 650 Q172 843 268 1008 Q365 1172 530 1269 Q694 1366 888 1366 Q1081 1366 1246 1269 Q1410 1172 1507 1008 Q1604 843 1604 650 Q1604 457 1507 292 Q1410 127 1246 31 Q1081 -66 888 -66 Q694 -66 530 31 Q365 127 268 292 Q172 457 172 650 ZM1303 714 L673 1097 Q630 1122 587 1097 Q544 1072 544 1022 L544 278 Q544 227 587 202 Q630 177 673 202 L1303 564 Q1346 589 1346 639 Q1346 689 1303 714 Z" /><glyph glyph-name="uniE35A" unicode="&#xe35a;" d="M962 383 Q980 383 993 371 Q1005 358 1005 340 L1005 197 Q1005 179 993 166 Q980 154 962 154 L818 154 Q801 154 788 166 Q775 179 775 197 L775 340 Q775 358 788 371 Q801 383 818 383 L962 383 ZM1084 1125 Q1170 1082 1222 1010 Q1274 939 1274 849 Q1274 752 1217 684 Q1181 644 1098 597 Q1055 572 1041 558 Q1016 540 1016 515 L1016 456 L765 456 L765 526 Q765 608 822 666 Q854 698 930 741 L937 745 Q991 777 1012 795 Q1037 820 1037 852 Q1037 895 993 924 Q948 953 892 953 Q836 953 797 928 Q765 906 718 845 Q707 834 691 831 Q675 827 661 838 L560 913 Q546 924 544 942 Q542 960 549 974 Q617 1071 704 1120 Q790 1168 912 1168 Q998 1168 1084 1125 ZM1660 1096 Q1781 892 1781 651 Q1781 411 1660 206 Q1540 2 1335 -119 Q1131 -239 890 -239 Q650 -239 445 -119 Q241 2 120 206 Q0 411 0 651 Q0 892 120 1096 Q241 1301 445 1421 Q650 1542 890 1542 Q1131 1542 1335 1421 Q1540 1301 1660 1096 ZM1511 292 Q1608 457 1608 651 Q1608 845 1511 1010 Q1414 1175 1249 1272 Q1084 1369 890 1369 Q696 1369 531 1272 Q366 1175 269 1010 Q172 845 172 651 Q172 457 269 292 Q366 127 531 30 Q696 -67 890 -67 Q1084 -67 1249 30 Q1414 127 1511 292 Z" /><glyph glyph-name="uniE35B" unicode="&#xe35b;" d="M889 1537 Q649 1537 445 1416 Q240 1296 120 1092 Q0 888 0 647 Q0 407 120 203 Q240 -2 445 -122 Q649 -242 889 -242 Q1130 -242 1334 -122 Q1538 -2 1658 203 Q1779 407 1779 647 Q1779 888 1658 1092 Q1538 1296 1334 1416 Q1130 1537 889 1537 ZM1474 231 Q1406 317 1307 368 Q1208 418 1097 418 Q1083 418 1047 407 Q961 382 889 382 Q818 382 731 407 Q696 418 681 418 Q570 418 472 368 Q373 317 305 231 Q172 418 172 647 Q172 841 269 1006 Q366 1171 531 1268 Q696 1364 889 1364 Q1083 1364 1248 1268 Q1413 1171 1510 1006 Q1606 841 1606 647 Q1606 418 1474 231 ZM889 -70 Q757 -70 638 -25 Q520 20 423 102 Q463 167 529 204 Q595 242 674 246 Q785 210 891 210 Q997 210 1108 246 Q1183 242 1250 204 Q1316 167 1355 102 Q1259 20 1140 -25 Q1022 -70 889 -70 ZM889 1260 Q718 1260 597 1140 Q477 1020 477 848 Q477 676 597 556 Q718 436 889 436 Q1061 436 1181 556 Q1301 676 1301 848 Q1301 1020 1181 1140 Q1061 1260 889 1260 ZM889 569 Q773 569 692 651 Q610 732 610 848 Q610 964 692 1046 Q773 1127 889 1127 Q1005 1127 1087 1046 Q1168 964 1168 848 Q1168 732 1087 651 Q1005 569 889 569 Z" /><glyph glyph-name="uniE35C" unicode="&#xe35c;" d="M891 1541 Q650 1541 446 1420 Q241 1300 120 1095 Q0 890 0 649 Q0 409 120 204 Q241 -1 446 -122 Q650 -242 891 -242 Q1132 -242 1337 -122 Q1542 -1 1662 204 Q1783 409 1783 649 Q1783 890 1662 1095 Q1542 1300 1337 1420 Q1132 1541 891 1541 ZM891 -69 Q697 -69 532 28 Q367 125 270 290 Q173 455 173 649 Q173 843 270 1009 Q367 1174 532 1271 Q697 1368 891 1368 Q1085 1368 1251 1271 Q1416 1174 1513 1009 Q1610 843 1610 649 Q1610 455 1513 290 Q1416 125 1251 28 Q1085 -69 891 -69 ZM1287 225 Q1243 304 1186 412 L1096 570 Q1161 606 1200 676 Q1240 746 1240 833 Q1240 980 1150 1059 Q1060 1138 873 1138 L589 1138 Q575 1138 561 1125 Q546 1113 546 1095 L546 204 Q546 186 561 173 Q575 161 589 161 L730 161 Q748 161 760 173 Q773 186 773 204 L773 506 L888 506 L1060 182 Q1071 161 1096 161 L1251 161 Q1276 161 1288 182 Q1301 204 1287 225 ZM895 707 L773 707 L773 937 L870 937 Q952 937 981 910 Q1010 883 1010 825 Q1010 768 981 737 Q952 707 895 707 Z" /><glyph glyph-name="uniE35D" unicode="&#xe35d;" d="M890 1541 Q649 1541 445 1420 Q240 1300 120 1096 Q0 891 0 651 Q0 410 120 206 Q240 1 445 -119 Q649 -239 890 -239 Q1130 -239 1335 -119 Q1539 1 1659 206 Q1780 410 1780 651 Q1780 891 1659 1096 Q1539 1300 1335 1420 Q1130 1541 890 1541 ZM890 -67 Q696 -67 531 30 Q366 127 269 292 Q172 457 172 651 Q172 845 269 1010 Q366 1175 531 1272 Q696 1368 890 1368 Q1083 1368 1249 1272 Q1414 1175 1510 1010 Q1607 845 1607 651 Q1607 457 1510 292 Q1414 127 1249 30 Q1083 -67 890 -67 ZM1256 873 L1033 651 L1256 428 Q1266 414 1266 396 Q1266 378 1256 367 L1173 285 Q1162 274 1144 274 Q1127 274 1112 285 L890 507 L667 285 Q653 274 635 274 Q617 274 606 285 L524 367 Q513 378 513 396 Q513 414 524 428 L746 651 L524 873 Q513 888 513 906 Q513 923 524 934 L606 1017 Q617 1028 635 1028 Q653 1028 667 1017 L890 794 L1112 1017 Q1127 1028 1144 1028 Q1162 1028 1173 1017 L1256 934 Q1266 923 1266 906 Q1266 888 1256 873 Z" /><glyph glyph-name="uniE35E" unicode="&#xe35e;" d="M1750 923 Q1824 698 1773 472 Q1722 245 1569 71 Q1416 -103 1192 -176 Q1058 -218 921 -218 Q739 -218 570 -145 Q401 -71 277 66 Q152 203 92 382 Q19 607 70 833 Q120 1060 273 1234 Q426 1407 651 1481 Q784 1523 921 1523 Q1104 1523 1272 1450 Q1441 1376 1566 1239 Q1690 1102 1750 923 ZM977 1228 L1142 1320 Q1357 1249 1487 1067 L1451 881 L1202 803 L977 968 L977 1228 ZM700 1320 L865 1228 L865 968 L640 803 L391 881 L356 1067 Q489 1249 700 1320 ZM538 220 L352 242 Q222 424 219 645 L356 775 L605 698 L693 435 L538 220 ZM1135 -15 L1213 154 L1058 368 L781 368 L630 154 L707 -15 Q921 -85 1128 -18 L1135 -15 ZM1546 333 Q1620 480 1624 645 L1487 775 L1237 698 L1149 431 L1304 220 L1487 242 Q1529 298 1546 333 ZM921 -236 Q1060 -236 1197 -193 Q1426 -117 1582 60 Q1737 237 1789 468 Q1841 699 1766 928 Q1705 1111 1578 1250 Q1451 1390 1279 1465 Q1106 1540 921 1540 Q782 1540 645 1497 Q416 1422 260 1245 Q105 1068 53 837 Q1 606 76 377 Q137 194 264 54 Q391 -85 563 -160 Q736 -236 921 -236 ZM719 -1 L649 152 L790 351 L1049 351 L1193 152 L1122 -2 Q924 -65 719 -1 ZM1168 434 L1251 684 L1482 756 L1606 638 Q1601 481 1531 341 Q1515 309 1477 258 L1312 239 L1168 434 ZM362 258 Q242 430 236 638 L360 756 L592 684 L674 438 L530 239 L362 258 ZM994 977 L994 1218 L1144 1301 Q1344 1233 1468 1063 L1437 894 L1205 822 L994 977 ZM406 894 L374 1063 Q501 1233 698 1301 L848 1218 L848 977 L637 822 L406 894 ZM605 698 L693 435 L538 220 L352 242 Q222 424 219 645 L356 775 L605 698 ZM640 803 L391 881 L356 1067 Q489 1249 700 1320 L865 1228 L865 968 L640 803 ZM781 368 L1058 368 L1213 154 L1135 -15 L1128 -18 Q921 -85 707 -15 L630 154 L781 368 ZM1451 881 L1202 803 L977 968 L977 1228 L1142 1320 Q1357 1249 1487 1067 L1451 881 ZM1237 698 L1487 775 L1624 645 Q1620 480 1546 333 Q1529 298 1487 242 L1304 220 L1149 431 L1237 698 Z" /><glyph glyph-name="uniE35F" unicode="&#xe35f;" d="M892 1543 Q1138 1543 1340.5 1422.5 Q1543 1302 1663.5 1099.5 Q1784 897 1784 651 Q1784 405 1663.5 202.5 Q1543 0 1340.5 -120.5 Q1138 -241 892 -241 Q646 -241 443.5 -120.5 Q241 0 120.5 202.5 Q0 405 0 651 Q0 897 120.5 1099.5 Q241 1302 443.5 1422.5 Q646 1543 892 1543 ZM1277 264 Q1294 320 1271 372 Q1248 425 1203 448 Q1159 470 1116 446 Q1033 399 941 420 Q849 441 774 517 Q699 594 667 706 Q639 804 655 901 Q671 997 724 1066 Q758 1105 751 1163 Q744 1220 707 1261 Q670 1303 619 1300 Q568 1297 516 1282 Q365 1239 264 1108 Q162 976 133 794 Q104 613 159 421 Q214 229 335 91 Q456 -48 612 -106 Q767 -163 918 -120 Q1046 -83 1140 18 Q1234 119 1277 264 Z" /><glyph glyph-name="uniE360" unicode="&#xe360;" d="M1420 328 L1206 454 L1397 486 Q1426 493 1441 517 Q1455 541 1451 567 Q1446 593 1423 608 Q1400 622 1371 616 L1096 516 L831 651 L1096 787 L1371 687 Q1400 680 1423 695 Q1446 710 1451 737 Q1455 765 1439 787 Q1423 810 1397 816 L1206 849 L1420 975 Q1442 988 1449 1015 Q1455 1043 1442 1065 Q1429 1088 1404 1096 Q1378 1104 1352 1091 L1138 968 L1206 1149 Q1213 1175 1200 1201 Q1187 1227 1161 1235 Q1135 1243 1113 1232 Q1090 1220 1080 1195 L1029 904 L796 768 L796 1097 L1019 1288 Q1038 1307 1037 1333 Q1035 1359 1014 1377 Q993 1394 965 1394 Q938 1394 919 1372 L796 1223 L796 1472 Q796 1498 776 1517 Q757 1537 728 1537 Q699 1537 679 1517 Q660 1498 660 1472 L660 1223 L537 1372 Q518 1394 490 1394 Q463 1394 442 1377 Q421 1359 419 1333 Q417 1307 437 1288 L660 1097 L660 768 L427 904 L375 1195 Q366 1220 343 1232 Q320 1243 295 1235 Q269 1227 256 1201 Q243 1175 249 1149 L317 968 L104 1091 Q78 1104 52 1096 Q26 1088 13 1065 Q0 1043 7 1015 Q13 988 36 975 L249 849 L58 816 Q33 810 16 787 Q0 765 5 737 Q10 710 33 695 Q55 680 84 687 L359 787 L624 651 L359 516 L84 616 Q55 622 33 608 Q10 593 5 566 Q0 538 16 516 Q33 493 58 486 L249 454 L36 328 Q13 315 7 288 Q0 260 13 237 Q26 215 52 207 Q78 199 104 212 L317 334 L249 153 Q243 124 256 100 Q269 76 295 68 Q320 60 343 71 Q366 82 375 108 L427 399 L660 535 L660 206 L437 15 Q417 -4 419 -30 Q421 -56 442 -74 Q463 -92 490 -92 Q518 -92 537 -69 L660 80 L660 -169 Q660 -195 679 -215 Q699 -234 728 -234 Q757 -234 776 -215 Q796 -195 796 -169 L796 80 L919 -69 Q941 -92 969 -92 Q996 -92 1016 -74 Q1035 -56 1037 -30 Q1038 -4 1019 15 L796 206 L796 535 L1029 399 L1080 108 Q1090 82 1113 71 Q1135 60 1161 68 Q1187 76 1200 102 Q1213 127 1206 153 L1138 334 L1352 212 Q1378 199 1404 207 Q1429 215 1442 237 Q1455 260 1449 288 Q1442 315 1420 328 ZM934 703 Q934 789 873.5 849.5 Q813 910 728 910 Q642 910 581.5 849.5 Q521 789 521 703 Q521 618 581.5 557.5 Q642 497 728 497 Q813 497 873.5 557.5 Q934 618 934 703 Z" /><glyph glyph-name="uniE361" unicode="&#xe361;" d="M651 -95 Q586 -67 522 -50 L528 80 Q531 165 481 223 Q431 281 347 287 L327 287 L197 281 Q167 341 146 411 L243 495 Q301 551 305 628.5 Q309 706 256 767 L243 780 L146 864 Q167 934 197 994 L327 988 Q412 984 470 1034.5 Q528 1085 535 1169 L535 1189 L528 1318 Q607 1357 658 1377 L742 1279 Q799 1221 876 1217 Q953 1213 1014 1266 L1027 1279 L1112 1377 Q1181 1356 1241 1325 L1235 1195 Q1231 1110 1281.5 1052.5 Q1332 995 1416 988 L1436 988 L1565 994 Q1596 934 1617 864 L1520 780 Q1461 724 1457.5 646.5 Q1454 569 1507 508 L1520 495 L1617 411 Q1596 341 1565 281 L1436 287 Q1351 291 1293 240.5 Q1235 190 1228 106 L1228 86 L1235 -43 Q1175 -74 1105 -95 L1021 2 Q964 61 887 64.5 Q810 68 749 15 L736 2 L651 -95 ZM392 -69 Q392 -89 401.5 -105.5 Q411 -122 431 -127 Q538 -196 664 -225 Q706 -234 729 -205 L846 -76 L852 -69 Q872 -54 897.5 -55 Q923 -56 943 -76 L1060 -205 Q1087 -234 1125 -225 Q1251 -196 1358 -127 Q1390 -108 1390 -69 L1384 99 L1384 106 Q1397 164 1455 164 L1624 158 Q1663 158 1682 190 Q1750 297 1779 424 Q1789 466 1760 488 L1630 605 L1624 612 Q1609 632 1610 657 Q1611 682 1630 702 L1760 819 Q1789 847 1779 884 Q1750 1010 1682 1117 Q1663 1150 1624 1150 L1455 1143 L1449 1143 Q1390 1156 1390 1215 L1397 1383 Q1397 1422 1364 1441 Q1257 1510 1131 1539 Q1089 1548 1066 1519 L949 1390 L943 1383 Q923 1368 897.5 1369 Q872 1370 852 1390 L736 1519 Q708 1548 671 1539 Q583 1514 437 1441 Q418 1436 408 1419.5 Q398 1403 398 1383 L405 1215 L405 1208 Q392 1150 334 1150 L165 1156 Q126 1156 107 1124 Q39 1017 9 890 Q0 848 29 826 L159 709 L165 702 Q180 682 179 657 Q178 632 159 612 L29 495 Q0 467 9 430 Q39 304 107 197 Q126 164 165 164 L334 171 L340 171 Q398 158 398 99 L392 -69 ZM885 262 Q1045 262 1159.5 376 Q1274 490 1274 651 Q1274 811 1159.5 925.5 Q1045 1040 885 1040 Q724 1040 610 925.5 Q496 811 496 651 Q496 490 610 376 Q724 262 885 262 ZM885 391 Q778 391 701.5 467.5 Q625 544 625 651 Q625 757 701.5 833.5 Q778 910 885 910 Q992 910 1068 833.5 Q1144 757 1144 651 Q1144 544 1068 467.5 Q992 391 885 391 Z" /><glyph glyph-name="uniE362" unicode="&#xe362;" d="M1679 979 L1196 1049 L981 1485 Q961 1525 923 1538 Q885 1551 847 1538 Q809 1525 790 1485 L575 1049 L92 979 Q49 973 24.5 940 Q0 907 1.5 867 Q3 827 33 798 L383 457 L300 -25 Q294 -65 315.5 -99.5 Q337 -134 376.5 -144 Q416 -154 452 -134 L885 91 L1318 -134 Q1355 -154 1394.5 -144 Q1434 -134 1455.5 -99.5 Q1477 -65 1470 -25 L1388 457 L1738 798 Q1768 827 1769.5 867 Q1771 907 1746 940 Q1721 973 1679 979 ZM1219 514 L1295 54 L885 272 L476 54 L552 514 L221 837 L680 903 L885 1320 L1090 903 L1550 837 L1219 514 Z" /><glyph glyph-name="uniE363" unicode="&#xe363;" d="M884 271 L475 53 L551 511 L221 835 L680 901 L884 1316 L884 1541 Q855 1541 830 1526 Q805 1511 789 1481 L574 1046 L93 976 Q50 970 25 937 Q0 904 1.5 864.5 Q3 825 33 795 L383 455 L300 -23 Q294 -66 315.5 -99 Q337 -132 376.5 -143.5 Q416 -155 452 -135 L884 89 L884 271 Z" /><glyph glyph-name="uniE364" unicode="&#xe364;" d="M1682 975 L1199 1044 L984 1481 Q964 1521 926 1534 Q888 1547 850 1534 Q811 1521 792 1481 L576 1044 L93 975 Q50 968 25 935 Q0 902 2 862 Q4 823 34 793 L384 452 L302 -32 Q295 -71 317 -106 Q338 -141 378 -151 Q418 -161 454 -141 L888 84 L1321 -141 Q1358 -161 1397 -151 Q1437 -141 1459 -106 Q1480 -71 1473 -32 L1391 452 L1742 793 Q1771 823 1773 862 Q1775 902 1750 935 Q1725 968 1682 975 ZM1222 508 L1298 48 L888 266 L888 1316 L1093 899 L1553 832 L1222 508 Z" /><glyph glyph-name="uniE365" unicode="&#xe365;" d="M1590 1540 L191 1540 Q111 1540 56 1485 Q0 1429 0 1349 L0 -50 Q0 -130 56 -185 Q111 -241 191 -241 L1590 -241 Q1670 -241 1726 -185 Q1781 -130 1781 -50 L1781 1349 Q1781 1429 1726 1485 Q1670 1540 1590 1540 ZM1567 -50 L215 -50 Q207 -50 199 -42 Q191 -34 191 -26 L191 1326 Q191 1333 199 1341 Q207 1349 215 1349 L1567 1349 Q1574 1349 1582 1341 Q1590 1333 1590 1326 L1590 -26 Q1590 -34 1582 -42 Q1574 -50 1567 -50 Z" /><glyph glyph-name="uniE366" unicode="&#xe366;" d="M1784 287 L1784 1354 Q1784 1434 1728 1489 Q1673 1545 1593 1545 L191 1545 Q112 1545 56 1489 Q0 1434 0 1354 L0 -48 Q0 -128 56 -183 Q112 -239 191 -239 L1259 -239 Q1338 -239 1394 -183 L1728 151 Q1784 207 1784 287 ZM1593 1354 L1593 462 L1179 462 Q1139 462 1111 434 Q1083 406 1083 366 L1083 -48 L191 -48 L191 1354 L1593 1354 ZM1274 -32 L1274 271 L1577 271 L1274 -32 Z" /><glyph glyph-name="uniE367" unicode="&#xe367;" d="M1785 -51 L1785 1352 Q1785 1432 1729 1487 Q1674 1543 1594 1543 L191 1543 Q112 1543 56 1487 Q0 1432 0 1352 L0 -51 Q0 -130 56 -186 Q112 -242 191 -242 L1594 -242 Q1674 -242 1729 -186 Q1785 -130 1785 -51 ZM1594 1328 L1594 -27 Q1594 -35 1586 -43 Q1578 -51 1570 -51 L215 -51 Q207 -51 199 -43 Q191 -35 191 -27 L191 1328 Q191 1336 199 1344 Q207 1352 215 1352 L1570 1352 Q1578 1352 1586 1344 Q1594 1336 1594 1328 ZM1346 587 L1346 714 Q1346 734 1332 748 Q1318 762 1298 762 L1004 762 L1004 1113 Q1004 1133 990 1147 Q976 1161 956 1161 L829 1161 Q809 1161 795 1147 Q781 1133 781 1113 L781 762 L501 762 Q481 762 467 748 Q453 734 453 714 L453 587 Q453 567 467 553 Q481 539 501 539 L781 539 L781 188 Q781 168 795 154 Q809 141 829 141 L956 141 Q976 141 990 154 Q1004 168 1004 188 L1004 539 L1298 539 Q1318 539 1332 553 Q1346 567 1346 587 Z" /><glyph glyph-name="uniE368" unicode="&#xe368;" d="M1561 1542 L223 1542 Q132 1542 66 1476 Q0 1409 0 1319 L0 315 Q0 225 66 159 Q132 92 223 92 L935 92 L1371 -235 Q1381 -242 1397 -242 Q1413 -242 1425 -230 Q1437 -218 1437 -200 L1437 92 L1561 92 Q1651 92 1718 159 Q1784 225 1784 315 L1784 1319 Q1784 1409 1718 1476 Q1651 1542 1561 1542 ZM183 275 Q167 291 167 315 L167 1319 Q167 1343 183 1359 Q199 1375 223 1375 L1561 1375 Q1585 1375 1601 1359 Q1617 1343 1617 1319 L1617 315 Q1617 291 1601 275 Q1585 260 1561 260 L1270 260 L1270 51 L991 260 L223 260 Q199 260 183 275 Z" /><glyph glyph-name="uniE369" unicode="&#xe369;" d="M1606 1540 L436 1540 Q362 1540 311 1489 Q260 1438 260 1365 L260 1280 L176 1280 Q102 1280 51 1229 Q0 1178 0 1105 L0 -66 Q0 -139 51 -190 Q102 -241 176 -241 L1346 -241 Q1419 -241 1470 -190 Q1521 -139 1521 -66 L1521 19 L1606 19 Q1679 19 1730 70 Q1781 121 1781 195 L1781 1365 Q1781 1438 1730 1489 Q1679 1540 1606 1540 ZM1324 -66 L197 -66 Q190 -66 183 -58 Q176 -51 176 -44 L176 1083 Q176 1090 183 1097 Q190 1105 197 1105 L260 1105 L260 195 Q260 121 311 70 Q362 19 436 19 L1346 19 L1346 -44 Q1346 -51 1338 -58 Q1331 -66 1324 -66 ZM1584 195 L457 195 Q450 195 443 202 Q436 209 436 216 L436 1343 Q436 1350 443 1357 Q450 1365 457 1365 L1584 1365 Q1591 1365 1598 1357 Q1606 1350 1606 1343 L1606 216 Q1606 209 1598 202 Q1591 195 1584 195 Z" /><glyph glyph-name="uniE36A" unicode="&#xe36a;" d="M1785 -48 L1785 1355 Q1785 1435 1729 1490 Q1674 1546 1594 1546 L191 1546 Q112 1546 56 1490 Q0 1435 0 1355 L0 -48 Q0 -127 56 -183 Q112 -239 191 -239 L1594 -239 Q1674 -239 1729 -183 Q1785 -127 1785 -48 ZM1594 1331 L1594 -24 Q1594 -32 1586 -40 Q1578 -48 1570 -48 L215 -48 Q207 -48 199 -40 Q191 -32 191 -24 L191 1331 Q191 1339 199 1347 Q207 1355 215 1355 L1570 1355 Q1578 1355 1586 1347 Q1594 1339 1594 1331 ZM467 556 Q481 542 501 542 L1284 542 Q1304 542 1318 556 Q1332 570 1332 590 L1332 717 Q1332 737 1318 751 Q1304 765 1284 765 L501 765 Q481 765 467 751 Q453 737 453 717 L453 590 Q453 570 467 556 Z" /><glyph glyph-name="uniE36B" unicode="&#xe36b;" d="M1613 1545 L167 1545 Q97 1545 49 1497 Q0 1448 0 1378 L0 155 Q0 85 49 36 Q97 -12 167 -12 L1613 -12 Q1683 -12 1731 36 Q1780 85 1780 155 L1780 1378 Q1780 1448 1731 1497 Q1683 1545 1613 1545 ZM1592 155 L188 155 Q181 155 174 162 Q167 169 167 175 L167 1357 Q167 1364 174 1371 Q181 1378 188 1378 L1592 1378 Q1599 1378 1606 1371 Q1613 1364 1613 1357 L1613 175 Q1613 169 1606 162 Q1599 155 1592 155 ZM543 1089 Q543 1048 514 1020 Q486 991 445 991 Q404 991 376 1020 Q347 1048 347 1089 Q347 1129 376 1158 Q404 1186 445 1186 Q486 1186 514 1158 Q543 1129 543 1089 ZM543 779 Q543 738 514 710 Q486 681 445 681 Q404 681 376 710 Q347 738 347 779 Q347 820 376 848 Q404 876 445 876 Q486 876 514 848 Q543 820 543 779 ZM543 444 Q543 404 514 375 Q486 347 445 347 Q404 347 376 375 Q347 404 347 444 Q347 485 376 513 Q404 542 445 542 Q486 542 514 513 Q543 485 543 444 ZM1236 1142 L1236 1058 Q1236 1041 1224 1029 Q1212 1017 1194 1017 L709 1017 Q692 1017 680 1029 Q667 1041 667 1058 L667 1142 Q667 1159 680 1171 Q692 1184 709 1184 L1194 1184 Q1212 1184 1224 1171 Q1236 1159 1236 1142 ZM1446 808 L1446 725 Q1446 707 1434 695 Q1422 683 1404 683 L709 683 Q692 683 680 695 Q667 707 667 725 L667 808 Q667 826 680 838 Q692 850 709 850 L1404 850 Q1422 850 1434 838 Q1446 826 1446 808 ZM1446 474 L1446 391 Q1446 374 1434 361 Q1422 349 1404 349 L709 349 Q692 349 680 361 Q667 374 667 391 L667 474 Q667 492 680 504 Q692 516 709 516 L1404 516 Q1422 516 1434 504 Q1446 492 1446 474 Z" /><glyph glyph-name="uniE36C" unicode="&#xe36c;" d="M1394 290 Q1362 271 1326 261 Q1313 255 1305 245 Q1297 235 1297 222 L1297 138 Q1297 131 1291 125 Q1284 118 1278 118 L175 118 Q169 118 162 125 Q156 131 156 138 L156 1240 Q156 1247 162 1253 Q169 1260 175 1260 L454 1260 Q464 1260 473 1266 Q532 1299 597 1325 Q623 1334 623 1364 L623 1377 Q623 1393 611 1404 Q600 1415 584 1415 L156 1415 Q91 1415 45 1370 Q0 1325 0 1260 L0 118 Q0 54 45 8 Q91 -37 156 -37 L1297 -37 Q1362 -37 1407 8 Q1453 54 1453 118 L1453 258 Q1453 280 1433 292 Q1414 303 1394 290 ZM1267 888 L1267 519 L1779 1030 L1267 1542 L1267 1172 Q1019 1169 873 1147 Q660 1112 550 1030 Q415 927 415 746 Q415 618 486 515 Q543 434 635 377 Q568 583 635 696 Q696 803 870 849 Q1012 885 1267 888 Z" /><glyph glyph-name="uniE36D" unicode="&#xe36d;" d="M1723 1151 L1389 1485 Q1334 1540 1254 1540 L247 1540 Q168 1540 112 1485 Q56 1429 56 1350 L56 825 L0 781 L0 -48 Q0 -127 56 -182 Q111 -238 191 -238 L1588 -238 Q1667 -238 1723 -182 Q1778 -127 1778 -48 L1778 1016 Q1778 1096 1723 1151 ZM1564 -48 L214 -48 Q206 -48 198 -40 Q191 -32 191 -24 L191 782 L247 826 L247 1326 Q247 1334 255 1342 Q263 1350 271 1350 L395 1350 L395 937 Q395 897 423 869 Q451 842 490 842 L1175 842 Q1215 842 1242 869 Q1270 897 1270 937 L1270 1334 L1580 1024 Q1588 1016 1588 1008 L1588 -24 Q1588 -32 1580 -40 Q1572 -48 1564 -48 ZM889 746 Q746 746 643 643 Q540 540 540 397 Q540 254 643 151 Q746 48 889 48 Q1032 48 1135 151 Q1238 254 1238 397 Q1238 540 1135 643 Q1032 746 889 746 ZM1080 1350 L1080 1032 L586 1032 L586 1350 L1080 1350 ZM889 238 Q822 238 776 284 Q730 330 730 397 Q730 465 776 510 Q822 556 889 556 Q957 556 1002 510 Q1048 465 1048 397 Q1048 330 1002 284 Q957 238 889 238 Z" /><glyph glyph-name="uniE36E" unicode="&#xe36e;" d="M1727 1216 Q1744 1216 1756 1228 Q1768 1240 1768 1257 L1768 1506 Q1768 1523 1756 1535 Q1744 1547 1727 1547 L1478 1547 Q1461 1547 1449 1535 Q1437 1523 1437 1506 L1437 1464 L332 1464 L332 1506 Q332 1523 319 1535 Q307 1547 290 1547 L41 1547 Q24 1547 12 1535 Q0 1523 0 1506 L0 1257 Q0 1240 12 1228 Q24 1216 41 1216 L83 1216 L83 332 L41 332 Q24 332 12 319 Q0 307 0 290 L0 41 Q0 24 12 12 Q24 0 41 0 L290 0 Q307 0 319 12 Q332 24 332 41 L332 83 L1437 83 L1437 41 Q1437 24 1449 12 Q1461 0 1478 0 L1727 0 Q1744 0 1756 12 Q1768 24 1768 41 L1768 290 Q1768 307 1756 319 Q1744 332 1727 332 L1685 332 L1685 1216 L1727 1216 ZM111 1437 L221 1437 L221 1326 L111 1326 L111 1437 ZM221 111 L111 111 L111 221 L221 221 L221 111 ZM1520 332 L1478 332 Q1461 332 1449 319 Q1437 307 1437 290 L1437 249 L332 249 L332 290 Q332 307 319 319 Q307 332 290 332 L249 332 L249 1216 L290 1216 Q307 1216 319 1228 Q332 1240 332 1257 L332 1299 L1437 1299 L1437 1257 Q1437 1240 1449 1228 Q1461 1216 1478 1216 L1520 1216 L1520 332 ZM1395 995 L1105 995 L1105 1174 Q1105 1191 1093 1204 Q1081 1216 1064 1216 L373 1216 Q356 1216 344 1204 Q332 1191 332 1174 L332 594 Q332 577 344 565 Q356 553 373 553 L663 553 L663 373 Q663 356 675 344 Q687 332 705 332 L1395 332 Q1413 332 1425 344 Q1437 356 1437 373 L1437 953 Q1437 970 1425 983 Q1413 995 1395 995 ZM470 1078 L967 1078 L967 691 L470 691 L470 1078 ZM1299 470 L801 470 L801 553 L1064 553 Q1081 553 1093 565 Q1105 577 1105 594 L1105 856 L1299 856 L1299 470 ZM1547 1437 L1658 1437 L1658 1326 L1547 1326 L1547 1437 ZM1658 111 L1547 111 L1547 221 L1658 221 L1658 111 Z" /><glyph glyph-name="uniE36F" unicode="&#xe36f;" d="M1679 205 Q1728 205 1761 169.5 Q1794 134 1790 82 Q1785 38 1751.5 10 Q1718 -18 1674 -18 L1568 -18 L1568 -129 Q1568 -178 1532.5 -211 Q1497 -244 1445 -241 Q1401 -235 1372.5 -201.5 Q1344 -168 1344 -125 L1344 -18 L227 -18 L227 1099 L115 1099 Q66 1099 33 1135 Q0 1171 3 1222 Q9 1266 42.5 1294.5 Q76 1323 119 1323 L227 1323 L227 1435 Q227 1484 262.5 1517 Q298 1550 349 1546 Q394 1541 422 1507.5 Q450 1474 450 1430 L450 1323 L1146 1323 Q1168 1323 1176.5 1303.5 Q1185 1284 1170 1267 L1009 1099 L450 1099 L450 262 L1524 1412 Q1538 1426 1557 1426.5 Q1576 1427 1590 1413 L1604 1399 Q1617 1385 1617.5 1367 Q1618 1349 1605 1335 L562 205 L1344 205 L1344 821 L1511 988 Q1529 1003 1548.5 994.5 Q1568 986 1568 964 L1568 205 L1679 205 Z" /><glyph glyph-name="uniE370" unicode="&#xe370;" d="M1673 851 L166 851 Q134 851 112 839 Q90 827 90 809 L90 773 Q90 756 112 744 Q134 732 166 732 L1673 732 Q1704 732 1726 744 Q1748 756 1748 773 L1748 809 Q1748 827 1726 839 Q1704 851 1673 851 ZM1617 1116 L948 1116 L725 1339 L167 1339 Q98 1339 49 1290 Q0 1241 0 1171 L0 167 Q0 98 49 49 Q98 0 167 0 L1617 0 Q1687 0 1736 49 Q1785 98 1785 167 L1785 948 Q1785 1018 1736 1067 Q1687 1116 1617 1116 ZM1597 167 L188 167 Q181 167 174 174 Q167 181 167 188 L167 1150 Q167 1157 174 1164 Q181 1171 188 1171 L655 1171 L878 948 L1597 948 Q1604 948 1611 941 Q1617 934 1617 927 L1617 188 Q1617 181 1611 174 Q1604 167 1597 167 Z" /><glyph glyph-name="uniE371" unicode="&#xe371;" d="M1632 693 L1484 693 L1484 841 Q1484 903 1441 946 Q1397 989 1336 989 L841 989 L643 1187 L148 1187 Q87 1187 43 1144 Q0 1101 0 1039 L0 148 Q0 87 43 43 Q87 0 148 0 L1385 0 Q1422 0 1456 19 Q1490 37 1512 71 L1759 467 Q1787 513 1778 567 Q1768 621 1728 657 Q1688 693 1632 693 ZM167 1039 L581 1039 L779 841 L1317 841 Q1323 841 1329 835 Q1336 829 1336 822 L1336 693 L470 693 Q430 693 396 674 Q362 655 343 621 L148 300 L148 1020 Q148 1026 155 1033 Q161 1039 167 1039 ZM1385 148 L223 148 L461 544 L1632 544 L1385 148 Z" /><glyph glyph-name="uniE372" unicode="&#xe372;" d="M1729 1368 Q1764 1324 1764 1265 L1764 427 Q1764 385 1743 348 Q1722 312 1687 287 Q1474 148 1240 148 Q1153 148 1062 169 Q1006 179 908 210 Q828 235 790 245 Q727 259 675 259 Q535 259 427 231 Q339 210 228 158 L228 -132 Q228 -156 212 -172 Q196 -187 172 -187 L116 -187 Q92 -187 76 -172 Q60 -156 60 -132 L60 1454 L228 1454 L228 1335 Q308 1367 418.5 1399.5 Q529 1432 584 1432 Q671 1432 762 1411 Q818 1401 915 1369 Q996 1345 1034 1334 Q1097 1320 1149 1320 Q1303 1320 1530 1418 Q1586 1443 1640 1427 Q1694 1411 1729 1368 ZM1596 427 L1596 1265 Q1502 1219 1387 1191 Q1254 1153 1149 1153 Q1079 1153 1003 1170 Q957 1181 868 1209 Q779 1237 730 1247 Q654 1265 584 1265 Q483 1265 381 1230 Q294 1198 228 1153 L228 343 Q308 381 434 404 Q559 427 675 427 Q744 427 821 409 Q867 399 956 371 Q1045 343 1093 333 Q1170 315 1240 315 Q1341 315 1442 350 Q1530 381 1596 427 ZM298 1553 Q298 1491 254.5 1447.5 Q211 1404 149 1404 Q87 1404 43.5 1447.5 Q0 1491 0 1553 Q0 1615 43.5 1658.5 Q87 1702 149 1702 Q211 1702 254.5 1658.5 Q298 1615 298 1553 Z" /><glyph glyph-name="uniE373" unicode="&#xe373;" d="M1403 1330 L1085 1649 Q1032 1702 956 1702 L182 1702 Q106 1702 53 1649 Q0 1596 0 1520 L0 -58 Q0 -134 53 -187 Q106 -240 182 -240 L1274 -240 Q1350 -240 1403 -187 Q1456 -134 1456 -58 L1456 1201 Q1456 1277 1403 1330 ZM182 -58 L182 1520 L789 1520 L789 1125 Q789 1087 815 1061 Q842 1034 880 1034 L1274 1034 L1274 -58 L182 -58 ZM1259 1216 L971 1216 L971 1505 L1259 1216 Z" /><glyph glyph-name="uniE374" unicode="&#xe374;" d="M1413 1341 Q1466 1287 1466 1211 L1466 -57 Q1466 -133 1413 -187 Q1359 -240 1283 -240 L183 -240 Q107 -240 53 -187 Q0 -133 0 -57 L0 1532 Q0 1608 53 1661 Q107 1715 183 1715 L962 1715 Q1039 1715 1092 1661 L1413 1341 ZM977 1516 L977 1226 L1268 1226 L977 1516 ZM1283 -57 L1283 1043 L886 1043 Q848 1043 821 1070 Q794 1096 794 1134 L794 1532 L183 1532 L183 -57 L1283 -57 ZM790 728 Q802 718 806 703 L897 306 Q901 329 939 516 L977 703 Q981 718 995 728 Q1008 737 1023 737 L1084 737 Q1107 737 1121 720 Q1134 703 1130 680 L1012 170 Q1006 146 987.5 131.5 Q969 117 945 117 L811 117 L745 432 L733 501 Q733 470 722 436 L656 117 L522 117 Q498 117 479.5 132 Q461 147 455 171 L344 680 Q336 703 351 720 Q367 737 386 737 L451 737 Q470 737 481 728 Q493 718 496 699 L573 306 Q573 329 619 508 L664 703 Q668 718 682 728 Q695 737 710 737 L760 737 Q779 737 790 728 Z" /><glyph glyph-name="uniE375" unicode="&#xe375;" d="M1225 787 L1225 748 Q1225 729 1212 716 Q1198 702 1179 702 L542 702 Q523 702 510 716 Q496 729 496 748 L496 787 Q496 806 510 819 Q523 832 542 832 L1179 832 Q1198 832 1212 819 Q1225 806 1225 787 ZM1195 587 Q1214 587 1227 574 Q1241 561 1241 542 L1241 503 Q1241 484 1227 471 Q1214 457 1195 457 L291 457 Q272 457 259 471 Q246 484 246 503 L246 542 Q246 561 259 574 Q272 587 291 587 L1195 587 ZM1404 1333 Q1457 1280 1457 1204 L1457 -56 Q1457 -132 1404 -185 Q1351 -238 1275 -238 L182 -238 Q106 -238 53 -185 Q0 -132 0 -56 L0 1523 Q0 1599 53 1652 Q106 1705 182 1705 L444 1705 Q470 1705 485.5 1684.5 Q501 1664 495 1638 L463 1523 L182 1523 L182 -56 L1275 -56 L1275 1037 L880 1037 Q838 1037 810 1070 Q789 1096 789 1128 L789 1523 L666 1523 L706 1666 Q721 1705 757 1705 L956 1705 Q1032 1705 1085 1652 L1404 1333 ZM972 1219 L1260 1219 L972 1508 L972 1219 ZM538 1654 L308 888 Q301 868 305 848 Q309 828 320 825 L378 807 Q389 804 404 818 Q418 833 424 853 L654 1619 Q660 1639 656 1659 Q653 1679 642 1682 L583 1700 Q573 1703 558 1689 Q544 1674 538 1654 Z" /><glyph glyph-name="uniE376" unicode="&#xe376;" d="M1411 1340 L1091 1660 Q1037 1714 961 1714 L183 1714 Q107 1714 53 1660 Q0 1607 0 1531 L0 -56 Q0 -132 53 -185 Q107 -239 183 -239 L1281 -239 Q1358 -239 1411 -185 Q1464 -132 1464 -56 L1464 1210 Q1464 1287 1411 1340 ZM1281 -56 L183 -56 L183 1531 L488 1531 L488 1470 L610 1470 L610 1531 L793 1531 L793 1134 Q793 1096 820 1069 Q847 1043 885 1043 L1281 1043 L1281 -56 ZM740 1038 Q736 1057 725 1067 Q713 1077 694 1077 L610 1077 L610 1199 L488 1199 L488 1077 L416 639 Q412 604 421.5 578.5 Q431 553 461 518 Q494 481 528.5 470.5 Q563 460 610 460 Q706 460 765 539 Q824 611 805 707 L740 1038 ZM610 1416 L610 1361 L488 1361 L488 1416 L610 1416 ZM610 1307 L610 1253 L488 1253 L488 1307 L610 1307 ZM610 566 Q561 566 524 596 Q488 627 488 668 Q488 710 524 741 Q561 771 612 771 Q664 771 700 741 Q736 710 736 668 Q736 627 700 596 Q664 566 610 566 ZM732 1416 L610 1416 L610 1470 L732 1470 L732 1416 ZM732 1307 L610 1307 L610 1361 L732 1361 L732 1307 ZM732 1199 L610 1199 L610 1253 L732 1253 L732 1199 ZM976 1516 L1266 1226 L976 1226 L976 1516 Z" /><glyph glyph-name="uniE377" unicode="&#xe377;" d="M1408 1337 L1089 1657 Q1035 1710 959 1710 L183 1710 Q107 1710 53 1657 Q0 1603 0 1527 L0 -56 Q0 -132 53 -186 Q107 -239 183 -239 L1279 -239 Q1355 -239 1408 -186 Q1462 -132 1462 -56 L1462 1207 Q1462 1284 1408 1337 ZM183 -56 L183 1527 L792 1527 L792 1131 Q792 1093 818 1067 Q845 1040 883 1040 L1279 1040 L1279 -56 L183 -56 ZM758 233 Q758 203 729 191 Q701 180 682 203 L477 340 L370 340 Q351 340 338 353 Q325 366 325 385 L325 598 Q325 614 338 629 Q351 644 370 644 L477 644 L682 781 Q701 804 729 793 Q758 781 758 751 L758 233 ZM914 412 Q941 439 941 477 Q941 515 914 541 Q876 579 893 629 Q910 678 958 694 Q1005 709 1047 667 Q1123 587 1123 477 Q1123 366 1047 286 Q1005 244 958 260 Q910 275 893 322 Q876 370 914 412 ZM1264 1223 L974 1223 L974 1512 L1264 1223 Z" /><glyph glyph-name="uniE378" unicode="&#xe378;" d="M1412 1344 L1091 1664 Q1038 1718 962 1718 L183 1718 Q107 1718 53 1664 Q0 1611 0 1535 L0 -53 Q0 -129 53 -183 Q107 -236 183 -236 L1282 -236 Q1359 -236 1412 -183 Q1465 -129 1465 -53 L1465 1214 Q1465 1290 1412 1344 ZM183 -53 L183 1535 L794 1535 L794 1138 Q794 1100 820 1073 Q847 1046 885 1046 L1282 1046 L1282 -53 L183 -53 ZM572 386 L446 497 L572 607 Q580 615 582 630 Q584 645 572 657 L508 726 Q496 737 483 737 Q469 737 458 726 L240 520 Q229 512 229 497 Q229 481 240 474 L458 268 Q469 256 483 256 Q496 256 508 268 L572 336 Q584 348 582 363 Q580 378 572 386 ZM893 874 L801 901 Q786 905 775 899 Q763 894 759 878 L550 161 Q546 146 553 134 Q561 123 572 119 L664 92 Q679 88 691 94 Q702 100 706 115 L916 832 Q920 848 912 859 Q904 871 893 874 ZM1225 520 L1007 726 Q996 737 983 737 Q969 737 958 726 L893 657 Q882 645 883 630 Q885 615 893 607 L1019 497 L893 386 Q885 378 883 363 Q882 348 893 336 L958 268 Q969 256 983 256 Q996 256 1007 268 L1225 474 Q1236 481 1236 497 Q1236 512 1225 520 ZM1267 1229 L977 1229 L977 1519 L1267 1229 Z" /><glyph glyph-name="uniE379" unicode="&#xe379;" d="M1410 1344 L1090 1664 Q1036 1718 960 1718 L183 1718 Q107 1718 53 1664 Q0 1611 0 1535 L0 -50 Q0 -126 53 -180 Q107 -233 183 -233 L1280 -233 Q1356 -233 1410 -180 Q1463 -126 1463 -50 L1463 1215 Q1463 1291 1410 1344 ZM183 -50 L183 1535 L793 1535 L793 1139 Q793 1101 819 1074 Q846 1047 884 1047 L1280 1047 L1280 -50 L183 -50 ZM1265 1230 L975 1230 L975 1520 L1265 1230 ZM704 239 Q704 209 676 198 Q647 186 628 209 L423 346 L316 346 Q297 346 284 360 Q271 373 271 392 L271 605 Q271 620 284 636 Q297 651 316 651 L423 651 L628 788 Q647 811 676 800 Q704 788 704 758 L704 239 ZM1125 711 L1057 711 Q1041 711 1034 697 Q987 613 966 561 L945 606 Q933 631 900 697 Q891 711 875 711 L807 711 Q791 711 782 697 Q774 683 784 669 L891 487 L784 304 Q774 290 782 276 Q791 262 807 262 L875 262 Q891 262 898 276 Q943 356 961 398 L966 412 L989 363 Q1001 337 1034 276 Q1041 262 1057 262 L1125 262 Q1141 262 1149 276 Q1158 290 1148 304 L1041 487 Q1066 526 1148 669 Q1158 683 1149 697 Q1141 711 1125 711 Z" /><glyph glyph-name="uniE37A" unicode="&#xe37a;" d="M1411 1337 L1091 1657 Q1037 1711 961 1711 L183 1711 Q107 1711 53 1657 Q0 1604 0 1528 L0 -59 Q0 -135 53 -189 Q107 -242 183 -242 L1282 -242 Q1358 -242 1411 -189 Q1465 -135 1465 -59 L1465 1207 Q1465 1284 1411 1337 ZM183 -59 L183 1528 L793 1528 L793 1131 Q793 1093 820 1066 Q847 1040 885 1040 L1282 1040 L1282 -59 L183 -59 ZM420 1040 Q344 1040 291 986 Q237 933 237 856 Q237 780 291 727 Q344 673 420 673 Q497 673 550 727 Q603 780 603 856 Q603 933 550 986 Q497 1040 420 1040 ZM129 124 L1309 124 L1309 612 L1221 704 Q1206 715 1187 715 Q1168 715 1156 704 L671 368 L523 562 Q507 573 488 573 Q469 573 454 558 L129 368 L129 124 ZM1266 1223 L976 1223 L976 1512 L1266 1223 Z" /><glyph glyph-name="uniE37B" unicode="&#xe37b;" d="M1403 1337 L1084 1656 Q1031 1709 955 1709 L182 1709 Q106 1709 53 1656 Q0 1603 0 1527 L0 -50 Q0 -126 53 -179 Q106 -232 182 -232 L1274 -232 Q1349 -232 1403 -179 Q1456 -126 1456 -50 L1456 1208 Q1456 1284 1403 1337 ZM182 -50 L182 1527 L788 1527 L788 1133 Q788 1095 815 1068 Q842 1042 879 1042 L1274 1042 L1274 -50 L182 -50 ZM1130 496 Q1080 545 887 519 Q792 575 747 697 L747 701 Q785 852 766 905 Q758 954 724 972 Q690 989 652 975 Q614 962 606 928 Q584 856 633 674 Q557 500 497 393 Q322 302 303 219 Q299 193 318 164 Q337 136 377 132 Q417 128 466 170 Q527 223 595 337 L641 352 Q785 401 853 412 Q906 382 965 365 Q1023 348 1067 348 Q1111 348 1131 375 Q1152 401 1152 437 Q1152 473 1130 496 ZM379 200 Q394 246 481 321 L497 333 Q462 280 432 246 Q409 219 394 208 Q379 196 379 200 ZM595 405 Q641 481 690 613 Q735 526 804 477 Q743 465 641 424 L595 405 ZM690 924 Q709 924 709 860 Q709 795 697 769 Q682 803 682 864 Q682 924 690 924 ZM1095 424 Q1092 420 1084 420 Q1073 416 1046 424 Q1008 431 955 454 Q1016 458 1050 452 Q1084 447 1094 437 Q1103 428 1095 424 ZM1258 1224 L970 1224 L970 1512 L1258 1224 Z" /><glyph glyph-name="uniE37C" unicode="&#xe37c;" d="M1408 1337 L1088 1657 Q1035 1710 959 1710 L183 1710 Q107 1710 53 1657 Q0 1603 0 1527 L0 -56 Q0 -132 53 -185 Q107 -239 183 -239 L1279 -239 Q1355 -239 1408 -185 Q1461 -132 1461 -56 L1461 1207 Q1461 1284 1408 1337 ZM183 -56 L183 1527 L792 1527 L792 1131 Q792 1093 818 1067 Q845 1040 883 1040 L1279 1040 L1279 -56 L183 -56 ZM457 116 L457 868 Q457 891 470 906 Q483 922 502 922 L765 922 Q872 922 938 839 Q1005 756 1005 626 Q1005 425 879 362 Q811 322 670 326 L643 326 L643 116 Q639 93 626 78 Q613 62 598 62 L502 62 Q483 62 470 78 Q457 93 457 116 ZM731 505 Q773 505 797 539 Q822 573 822 624 Q822 676 797 707 Q773 738 731 738 L639 738 L639 505 L731 505 ZM1264 1223 L974 1223 L974 1512 L1264 1223 Z" /><glyph glyph-name="uniE37D" unicode="&#xe37d;" d="M1407 1339 L1087 1659 Q1034 1712 958 1712 L183 1712 Q106 1712 53 1659 Q0 1605 0 1529 L0 -52 Q0 -129 53 -182 Q106 -235 183 -235 L1278 -235 Q1354 -235 1407 -182 Q1460 -129 1460 -52 L1460 1210 Q1460 1286 1407 1339 ZM183 -52 L183 1529 L791 1529 L791 1134 Q791 1096 817 1069 Q844 1043 882 1043 L1278 1043 L1278 -52 L183 -52 ZM1080 750 L879 552 L879 693 Q879 723 856 746 Q833 769 803 769 L353 769 Q323 769 300 746 Q277 723 277 693 L277 297 Q277 267 300 244 Q323 221 353 221 L803 221 Q833 221 856 244 Q879 267 879 297 L879 438 L1080 240 Q1107 210 1145 225 Q1183 240 1183 282 L1183 708 Q1183 750 1145 765 Q1107 780 1080 750 ZM1262 1225 L973 1225 L973 1514 L1262 1225 Z" /><glyph glyph-name="uniE37E" unicode="&#xe37e;" d="M1722 818 Q1773 730 1773 634 Q1773 508 1681 412 Q1589 316 1456 316 L1323 316 Q1356 231 1356 146 Q1356 -50 1260 -150 Q1168 -242 1001 -242 Q898 -242 839 -139 Q805 -79 772 54 Q754 146 739 161 Q698 201 610 318 Q521 434 484 467 L458 467 Q440 441 414 425 Q388 408 355 408 L118 408 Q70 408 35 443 Q0 478 0 526 L0 1413 Q0 1461 35 1496 Q70 1531 118 1531 L355 1531 Q399 1531 432 1502 L473 1502 Q514 1502 558 1517 Q587 1524 650 1550 Q765 1598 839 1616 Q972 1650 1127 1650 L1208 1650 Q1415 1650 1522 1550 Q1622 1461 1626 1299 Q1663 1247 1679 1180 Q1696 1114 1689 1051 Q1748 940 1722 818 ZM219 488 L219 1453 Q219 1481 206 1501 Q194 1522 175 1522 L137 1522 Q119 1522 106 1501 Q93 1481 93 1453 L93 488 Q93 459 106 439 Q119 419 137 419 L175 419 Q194 419 206 439 Q219 459 219 488 ZM1555 538 Q1596 582 1596 634 Q1596 685 1568 730 Q1541 774 1515 774 Q1555 818 1554 890 Q1552 962 1496 1018 Q1526 1073 1507 1138 Q1489 1203 1445 1228 Q1463 1358 1404 1417 Q1352 1472 1245 1472 L1108 1472 Q1012 1472 913 1446 Q853 1432 743 1395 Q654 1361 610 1350 Q536 1332 473 1332 L473 645 L514 645 Q562 645 632 571 Q672 530 754 419 Q831 316 861 286 Q902 246 924 187 Q935 150 950 76 Q961 20 968 -2 Q983 -43 1001 -65 Q1116 -65 1156 5 Q1179 50 1179 146 Q1179 194 1160 242 Q1149 272 1123 323 Q1097 375 1090 401 Q1071 449 1071 493 L1456 493 Q1515 493 1555 538 Z" /><glyph glyph-name="uniE37F" unicode="&#xe37f;" d="M1766 788 Q1766 692 1714 604 Q1740 483 1681 372 Q1689 310 1672 243 Q1656 177 1619 126 Q1615 -36 1516 -125 Q1409 -224 1203 -224 L1122 -224 Q968 -224 835 -191 Q762 -172 648 -125 Q585 -99 556 -91 Q511 -77 471 -77 L430 -77 Q397 -106 353 -106 L118 -106 Q70 -106 35 -71 Q0 -36 0 12 L0 895 Q0 942 35 977 Q70 1012 118 1012 L353 1012 Q386 1012 412 996 Q438 979 456 953 L482 953 Q519 987 607 1102 Q695 1218 736 1259 Q751 1274 769 1365 Q802 1498 835 1557 Q894 1660 997 1660 Q1163 1660 1255 1568 Q1350 1469 1350 1274 Q1350 1189 1317 1104 L1450 1104 Q1582 1104 1674 1009 Q1766 913 1766 788 ZM218 -28 L218 933 Q218 962 206 982 Q193 1002 174 1002 L137 1002 Q118 1002 105 982 Q93 962 93 933 L93 -28 Q93 -56 105 -76 Q118 -96 137 -96 L174 -96 Q193 -96 206 -76 Q218 -56 218 -28 ZM1589 788 Q1589 839 1549 884 Q1508 928 1450 928 L1067 928 Q1067 972 1085 1020 Q1093 1045 1118 1097 Q1144 1148 1155 1178 Q1174 1226 1174 1274 Q1174 1369 1152 1413 Q1111 1483 997 1483 Q979 1461 964 1421 Q957 1399 946 1343 Q931 1270 920 1233 Q898 1174 857 1134 Q828 1104 751 1001 Q670 891 629 850 Q559 777 511 777 L471 777 L471 93 Q533 93 607 74 Q651 63 739 30 Q850 -7 909 -22 Q1008 -47 1104 -47 L1240 -47 Q1347 -47 1398 8 Q1457 67 1439 196 Q1483 221 1501 286 Q1519 350 1490 405 Q1545 460 1547 532 Q1549 604 1508 648 Q1534 648 1562 692 Q1589 736 1589 788 Z" /><glyph glyph-name="uniE380" unicode="&#xe380;" d="M616 861 L616 709 Q616 690 603 677 Q590 664 571 664 L419 664 Q400 664 387 677 Q373 690 373 709 L373 861 Q373 880 387 893 Q400 907 419 907 L571 907 Q590 907 603 893 Q616 880 616 861 ZM1100 861 L1100 709 Q1100 690 1086 677 Q1073 664 1054 664 L902 664 Q883 664 870 677 Q857 690 857 709 L857 861 Q857 880 870 893 Q883 907 902 907 L1054 907 Q1073 907 1086 893 Q1100 880 1100 861 ZM616 378 L616 227 Q616 208 603 194 Q590 181 571 181 L419 181 Q400 181 387 194 Q373 208 373 227 L373 378 Q373 397 387 411 Q400 424 419 424 L571 424 Q590 424 603 411 Q616 397 616 378 ZM1100 378 L1100 227 Q1100 208 1086 194 Q1073 181 1054 181 L902 181 Q883 181 870 194 Q857 208 857 227 L857 378 Q857 397 870 411 Q883 424 902 424 L1054 424 Q1073 424 1086 411 Q1100 397 1100 378 ZM1275 1460 L971 1460 Q971 1559 899 1631 Q827 1703 729 1703 Q630 1703 558 1631 Q486 1559 486 1460 L182 1460 Q106 1460 53 1407 Q0 1354 0 1278 L0 -58 Q0 -134 53 -187 Q106 -240 182 -240 L1275 -240 Q1351 -240 1404 -187 Q1457 -134 1457 -58 L1457 1278 Q1457 1354 1404 1407 Q1351 1460 1275 1460 ZM1252 -58 L205 -58 Q197 -58 190 -50 Q182 -43 182 -35 L182 1255 Q182 1263 190 1270 Q197 1278 205 1278 L364 1278 L364 1141 Q364 1122 378 1109 Q391 1096 410 1096 L1047 1096 Q1066 1096 1080 1109 Q1093 1122 1093 1141 L1093 1278 L1252 1278 Q1260 1278 1267 1270 Q1275 1263 1275 1255 L1275 -35 Q1275 -43 1267 -50 Q1260 -58 1252 -58 ZM729 1551 Q766 1551 793 1524 Q820 1498 820 1460 Q820 1422 793 1395 Q766 1369 729 1369 Q691 1369 664 1395 Q637 1422 637 1460 Q637 1498 664 1524 Q691 1551 729 1551 Z" /><glyph glyph-name="uniE381" unicode="&#xe381;" d="M1612 1334 L167 1334 Q97 1334 49 1285 Q0 1237 0 1167 L0 167 Q0 97 49 49 Q97 0 167 0 L1612 0 Q1682 0 1730 49 Q1779 97 1779 167 L1779 1167 Q1779 1237 1730 1285 Q1682 1334 1612 1334 ZM1591 167 L188 167 Q181 167 174 174 Q167 181 167 188 L167 1146 Q167 1153 174 1160 Q181 1167 188 1167 L1591 1167 Q1598 1167 1605 1160 Q1612 1153 1612 1146 L1612 188 Q1612 181 1605 174 Q1598 167 1591 167 ZM932 466 Q943 452 929 438 Q863 365 760 342 Q658 320 559 351 Q460 382 397 462 Q331 549 331 674 Q331 834 446 924 Q550 1008 696 1006 Q842 1004 929 917 Q939 907 932 896 L873 792 Q866 782 858 780 Q849 778 842 785 Q772 841 694 843 Q616 844 564 799 Q512 754 512 674 Q512 594 562 544 Q613 493 687 497 Q762 500 831 563 Q838 570 849 570 Q859 570 863 559 L932 466 ZM1456 466 Q1467 452 1456 438 Q1387 365 1285 342 Q1182 320 1083 351 Q984 382 921 462 Q855 549 855 674 Q855 834 970 924 Q1074 1008 1220 1006 Q1366 1004 1456 917 Q1463 907 1456 896 L1397 792 Q1394 782 1384 780 Q1373 778 1366 785 Q1297 841 1218 843 Q1140 844 1088 799 Q1036 754 1036 674 Q1036 594 1086 544 Q1137 493 1213 497 Q1290 500 1359 563 Q1366 570 1375 570 Q1384 570 1390 559 L1456 466 Z" /><glyph glyph-name="uniE382" unicode="&#xe382;" d="M1630 1383 L148 1383 Q86 1383 43 1340 Q0 1297 0 1235 L0 148 Q0 86 43 43 Q86 0 148 0 L1630 0 Q1692 0 1735 43 Q1778 86 1778 148 L1778 1235 Q1778 1297 1735 1340 Q1692 1383 1630 1383 ZM167 1235 L1612 1235 Q1618 1235 1624 1229 Q1630 1223 1630 1216 L1630 1087 L148 1087 L148 1216 Q148 1223 154 1229 Q161 1235 167 1235 ZM1612 148 L167 148 Q161 148 154 154 Q148 161 148 167 L148 692 L1630 692 L1630 167 Q1630 161 1624 154 Q1618 148 1612 148 ZM494 457 L494 333 Q494 318 483 307 Q472 296 457 296 L333 296 Q318 296 307 307 Q296 318 296 333 L296 457 Q296 472 307 483 Q318 494 333 494 L457 494 Q472 494 483 483 Q494 472 494 457 ZM1087 457 L1087 333 Q1087 318 1076 307 Q1065 296 1050 296 L630 296 Q614 296 604 307 Q593 318 593 333 L593 457 Q593 472 604 483 Q614 494 630 494 L1050 494 Q1065 494 1076 483 Q1087 472 1087 457 Z" /><glyph glyph-name="uniE383" unicode="&#xe383;" d="M1747 784 L1610 812 L1208 493 Q1121 420 1065 389 Q972 333 888 333 Q805 333 708 389 Q656 420 566 493 L309 698 L309 861 Q309 876 322 882.5 Q335 889 348 880 Q464 789 635 656 L666 628 Q736 569 777 545 Q843 500 888 500 Q934 500 999 545 Q1041 569 1111 628 L1142 656 Q1489 923 1610 1024 L1610 1166 L167 1166 L167 167 L1610 167 L1610 682 L1758 644 Q1767 641 1772 634.5 Q1777 628 1777 619 L1777 167 Q1777 97 1728 49 Q1680 0 1610 0 L167 0 Q97 0 49 49 Q0 97 0 167 L0 1166 Q0 1235 49 1284 Q97 1333 167 1333 L1610 1333 Q1680 1333 1728 1284 Q1777 1235 1777 1166 L1777 808 Q1777 796 1768 789 Q1759 782 1747 784 Z" /><glyph glyph-name="uniE384" unicode="&#xe384;" d="M1692 1068 L89 1068 Q53 1068 26 1042 Q0 1016 0 979 L0 89 Q0 53 26 26 Q53 0 89 0 L1692 0 Q1728 0 1754 26 Q1781 53 1781 89 L1781 979 Q1781 1016 1754 1042 Q1728 1068 1692 1068 ZM1647 312 Q1572 312 1521 260 Q1469 209 1469 134 L312 134 Q312 209 260 260 Q209 312 134 312 L134 757 Q209 757 260 808 Q312 860 312 935 L1469 935 Q1469 860 1521 808 Q1572 757 1647 757 L1647 312 ZM1054 305 Q1054 293 1044 282 Q1034 272 1021 272 L759 272 Q747 272 737 282 Q727 293 727 305 L727 370 Q727 383 737 393 Q747 403 759 403 L825 403 L825 628 Q813 620 798 624 Q784 628 776 637 L743 694 Q735 702 737 716 Q739 731 751 739 L813 780 Q837 796 866 796 L923 796 Q935 796 946 786 Q956 776 956 763 L956 403 L1021 403 Q1034 403 1044 393 Q1054 383 1054 370 L1054 305 Z" /><glyph glyph-name="uniE385" unicode="&#xe385;" d="M1614 1336 L167 1336 Q97 1336 49 1287 Q0 1238 0 1169 L0 167 Q0 97 49 49 Q97 0 167 0 L1614 0 Q1683 0 1732 49 Q1781 97 1781 167 L1781 1169 Q1781 1238 1732 1287 Q1683 1336 1614 1336 ZM1593 167 L188 167 Q181 167 174 174 Q167 181 167 188 L167 1148 Q167 1155 174 1162 Q181 1169 188 1169 L1593 1169 Q1600 1169 1607 1162 Q1614 1155 1614 1148 L1614 188 Q1614 181 1607 174 Q1600 167 1593 167 ZM371 980 Q312 980 272 940 Q232 900 232 841 Q232 782 272 742 Q312 702 371 702 Q430 702 470 742 Q510 782 510 841 Q510 900 470 940 Q430 980 371 980 ZM433 210 L1657 210 L1657 488 L1240 795 Q1229 805 1212 805 Q1195 805 1184 795 L767 377 L628 516 Q617 527 600 527 Q582 527 572 516 L433 377 L433 210 Z" /><glyph glyph-name="uniE386" unicode="&#xe386;" d="M1032 248 Q1023 248 1015 255 Q1007 263 1007 272 L1007 322 Q1007 331 1015 339 Q1023 347 1032 347 L1544 347 Q1553 347 1561 339 Q1569 331 1569 322 L1569 272 Q1569 263 1561 255 Q1553 248 1544 248 L1032 248 ZM1032 644 Q1023 644 1015 652 Q1007 660 1007 669 L1007 718 Q1007 728 1015 735 Q1023 743 1032 743 L1379 743 Q1388 743 1396 735 Q1404 728 1404 718 L1404 669 Q1404 660 1396 652 Q1388 644 1379 644 L1032 644 ZM1032 446 Q1023 446 1015 454 Q1007 461 1007 471 L1007 520 Q1007 529 1015 537 Q1023 545 1032 545 L1379 545 Q1388 545 1396 537 Q1404 529 1404 520 L1404 471 Q1404 461 1396 454 Q1388 446 1379 446 L1032 446 ZM1740 1344 Q1783 1300 1783 1239 L1783 149 Q1783 87 1740 43 Q1697 0 1635 0 L149 0 Q87 0 43 43 Q0 87 0 149 L0 1239 Q0 1300 43 1344 Q87 1387 149 1387 L1635 1387 Q1697 1387 1740 1344 ZM1635 149 L1635 1040 L149 1040 L149 149 L1635 149 ZM572 583 Q492 583 433 642 Q374 701 374 782 Q374 862 433 921 Q492 980 572 980 Q653 980 712 921 Q771 862 771 782 Q771 701 712 642 Q653 583 572 583 ZM919 242 L226 242 L226 305 Q226 379 286 432 Q346 484 433 484 Q449 484 473 475 Q523 460 572 460 Q622 460 672 475 Q699 484 712 484 Q799 484 859 432 Q919 379 919 305 L919 242 Z" /><glyph glyph-name="uniE387" unicode="&#xe387;" d="M599 1195 L207 1371 Q161 1393 113 1379 Q65 1365 32 1327 Q0 1288 0 1235 L0 347 Q0 303 25 266 Q49 229 90 211 L534 13 Q586 -8 639 7 L1179 189 L1571 13 Q1617 -8 1665 5 Q1713 19 1746 58 Q1778 96 1778 149 L1778 1038 Q1778 1081 1753 1118 Q1729 1155 1688 1174 L1244 1371 Q1191 1393 1139 1377 L599 1195 ZM1630 1038 L1630 149 L1259 313 L1259 1202 L1630 1038 ZM1111 322 L667 174 L667 1063 L1111 1211 L1111 322 ZM519 183 L148 347 L148 1235 L519 1072 L519 183 Z" /><glyph glyph-name="uniE388" unicode="&#xe388;" d="M1635 1189 L149 1189 Q87 1189 43 1146 Q0 1102 0 1040 L0 149 Q0 87 43 43 Q87 0 149 0 L1635 0 Q1697 0 1740 43 Q1783 87 1783 149 L1783 1040 Q1783 1102 1740 1146 Q1697 1189 1635 1189 ZM1660 149 Q1660 139 1652 132 Q1644 124 1635 124 L149 124 Q139 124 132 132 Q124 139 124 149 L124 1040 Q124 1050 132 1057 Q139 1065 149 1065 L1635 1065 Q1644 1065 1652 1057 Q1660 1050 1660 1040 L1660 149 ZM378 816 L378 903 Q378 918 367 929 Q356 940 341 940 L254 940 Q238 940 228 929 Q217 918 217 903 L217 816 Q217 801 228 790 Q238 779 254 779 L341 779 Q356 779 367 790 Q378 801 378 816 ZM526 562 L526 649 Q526 664 516 675 Q505 686 489 686 L403 686 Q387 686 376 675 Q365 664 365 649 L365 562 Q365 547 376 536 Q387 525 403 525 L489 525 Q505 525 516 536 Q526 547 526 562 ZM675 816 L675 903 Q675 918 664 929 Q653 940 638 940 L551 940 Q536 940 525 929 Q514 918 514 903 L514 816 Q514 801 525 790 Q536 779 551 779 L638 779 Q653 779 664 790 Q675 801 675 816 ZM1263 272 L1263 321 Q1263 337 1252 348 Q1242 358 1226 358 L557 358 Q542 358 531 348 Q520 337 520 321 L520 272 Q520 256 531 245 Q542 235 557 235 L1226 235 Q1242 235 1252 245 Q1263 256 1263 272 ZM824 562 L824 649 Q824 664 813 675 Q802 686 786 686 L700 686 Q684 686 673 675 Q663 664 663 649 L663 562 Q663 547 673 536 Q684 525 700 525 L786 525 Q802 525 813 536 Q824 547 824 562 ZM972 816 L972 903 Q972 918 961 929 Q951 940 935 940 L848 940 Q833 940 822 929 Q811 918 811 903 L811 816 Q811 801 822 790 Q833 779 848 779 L935 779 Q951 779 961 790 Q972 801 972 816 ZM1121 562 L1121 649 Q1121 664 1110 675 Q1099 686 1084 686 L997 686 Q982 686 971 675 Q960 664 960 649 L960 562 Q960 547 971 536 Q982 525 997 525 L1084 525 Q1099 525 1110 536 Q1121 547 1121 562 ZM1269 816 L1269 903 Q1269 918 1259 929 Q1248 940 1232 940 L1146 940 Q1130 940 1119 929 Q1108 918 1108 903 L1108 816 Q1108 801 1119 790 Q1130 779 1146 779 L1232 779 Q1248 779 1259 790 Q1269 801 1269 816 ZM1418 562 L1418 649 Q1418 664 1407 675 Q1396 686 1381 686 L1294 686 Q1279 686 1268 675 Q1257 664 1257 649 L1257 562 Q1257 547 1268 536 Q1279 525 1294 525 L1381 525 Q1396 525 1407 536 Q1418 547 1418 562 ZM1567 816 L1567 903 Q1567 918 1556 929 Q1545 940 1530 940 L1443 940 Q1427 940 1417 929 Q1406 918 1406 903 L1406 816 Q1406 801 1417 790 Q1427 779 1443 779 L1530 779 Q1545 779 1556 790 Q1567 801 1567 816 Z" /><glyph glyph-name="uniE389" unicode="&#xe389;" d="M1651 292 Q1787 425 1787 596 Q1787 717 1716 822 Q1645 928 1519 998 Q1393 1067 1241 1086 Q1167 1223 1005 1306 Q844 1390 645 1390 Q469 1390 321 1323 Q174 1257 87 1142 Q0 1027 0 894 Q0 723 137 590 Q106 531 62 469 Q34 431 20 417 Q6 403 2 382 Q-3 360 6 341 Q16 323 33 310 Q50 298 71 298 Q276 298 459 419 Q503 410 549 403 Q624 267 784 183 Q943 99 1142 99 Q1235 99 1328 121 Q1514 0 1716 0 Q1738 0 1755 12 Q1772 25 1781 43 Q1790 62 1787 84 Q1784 106 1769 121 Q1759 127 1725 171 Q1682 233 1651 292 ZM431 577 L379 543 Q313 500 245 478 L270 521 L320 621 L242 695 Q149 785 149 894 Q149 987 217 1066 Q285 1145 399 1193 Q512 1241 645 1241 Q779 1241 892 1193 Q1005 1145 1074 1066 Q1142 987 1142 894 Q1142 801 1074 721 Q1005 642 892 594 Q779 546 645 546 Q568 546 493 565 L431 577 ZM1545 397 L1471 323 L1517 227 L1542 180 Q1474 202 1409 245 L1356 279 L1294 267 Q1220 248 1142 248 Q1018 248 911 290 Q804 332 735 403 Q891 419 1018 489 Q1145 559 1218 664 Q1291 770 1291 894 L1288 925 Q1440 891 1539 799 Q1638 708 1638 597 Q1638 487 1545 397 ZM367 925 Q368 927 378 938 Q388 949 408 961 Q428 973 460 973 Q489 973 506.5 963 Q524 953 532 942.5 Q540 932 541 930 L627 967 Q619 987 598 1009.5 Q577 1032 542.5 1049 Q508 1066 460 1066 Q415 1066 376 1044.5 Q337 1023 306.5 995 Q276 967 259 945.5 Q242 924 240 921 L367 925 ZM767 925 Q768 927 778 938 Q788 949 808 961 Q828 973 860 973 Q889 973 906.5 963 Q924 953 932 942.5 Q940 932 941 930 L1061 933 Q1052 953 1023 984 Q994 1015 951 1040.5 Q908 1066 860 1066 Q815 1066 782.5 1052.5 Q750 1039 729 1020.5 Q708 1002 697.5 988 Q687 974 686 972 L767 925 Z" /><glyph glyph-name="uniE38A" unicode="&#xe38a;" d="M1651 1459 Q1704 1406 1704 1329 L1704 175 Q1704 99 1651 45 Q1598 -8 1522 -8 L1217 -8 L1217 -55 Q1217 -131 1164 -184 Q1111 -238 1035 -238 L183 -238 Q107 -238 53 -184 Q0 -131 0 -55 L0 1162 Q0 1238 53 1291 Q107 1345 183 1345 L311 1345 L311 1527 Q311 1603 364 1657 Q418 1710 494 1710 L1324 1710 Q1400 1710 1453 1657 L1651 1459 ZM1035 -32 L1035 -8 L494 -8 Q418 -8 364 45 Q311 99 311 175 L311 1162 L205 1162 Q198 1162 190 1154 Q183 1147 183 1139 L183 -32 Q183 -40 190 -48 Q198 -55 205 -55 L1012 -55 Q1019 -55 1027 -48 Q1035 -40 1035 -32 ZM1522 198 L1522 1101 L1187 1101 Q1149 1101 1122 1128 Q1095 1154 1095 1192 L1095 1527 L516 1527 Q509 1527 501 1520 Q494 1512 494 1504 L494 198 Q494 190 501 182 Q509 175 516 175 L1499 175 Q1506 175 1514 182 Q1522 190 1522 198 ZM1522 1284 L1522 1322 Q1522 1329 1514 1337 L1331 1520 Q1324 1527 1316 1527 L1278 1527 L1278 1284 L1522 1284 ZM590 431 L1392 431 Q1413 431 1431 441 Q1449 450 1449 462 L1449 523 Q1449 534 1431 543 Q1413 553 1392 553 L590 553 Q569 553 551 543 Q533 534 533 523 L533 462 Q533 450 551 441 Q569 431 590 431 ZM590 675 L1392 675 Q1413 675 1431 684 Q1449 694 1449 705 L1449 766 Q1449 777 1431 787 Q1413 796 1392 796 L590 796 Q569 796 551 787 Q533 777 533 766 L533 705 Q533 694 551 684 Q569 675 590 675 ZM569 918 L1069 918 Q1083 918 1094 928 Q1105 937 1105 949 L1105 1009 Q1105 1021 1094 1030 Q1083 1040 1069 1040 L569 1040 Q555 1040 544 1030 Q533 1021 533 1009 L533 949 Q533 937 544 928 Q555 918 569 918 Z" /><glyph glyph-name="uniE38B" unicode="&#xe38b;" d="M1763 593 Q1785 561 1785 524 Q1785 487 1763 456 Q1689 330 1572 239 Q1393 113 1265.5 69 Q1138 25 1046 11 Q1031 9 1016 6 Q954 0 892 0 Q617 0 384 125 Q155 248 22 456 Q0 487 0 524 Q0 561 22 593 Q192 807 327 889.5 Q462 972 616 1014 Q750 1048 892 1048 Q1168 1048 1400 923 Q1630 801 1763 593 ZM1464 333 Q1568 416 1636 524 Q1579 608 1491 693 Q1403 778 1328 829 Q1227 893 1037.5 913.5 Q848 934 700 903 Q673 893 648 884 Q524 845 416.5 778 Q309 711 149 524 Q263 348 460 242 Q657 137 892 137 L912 137 Q1168 165 1288 223 Q1408 281 1456 327 Q1460 330 1464 333 ZM1294 599 Q1294 508 1254.5 430 Q1215 352 1148 299 L647 839 Q638 849 628 855 Q681 914 754 947.5 Q827 981 912 981 Q1021 981 1110 926 Q1098 927 1087 927 Q1014 927 963 876 Q912 825 912 752 Q912 680 963 629 Q1014 578 1087 578 Q1159 578 1210 629 Q1261 680 1261 752 Q1261 753 1261 753 Q1261 753 1261 753 Q1294 681 1294 599 ZM576 782 Q576 781 577 781 Q578 779 580 777 L1068 251 Q996 217 912 217 Q753 217 641 329 Q529 441 529 599 Q529 698 576 782 Z" /><glyph glyph-name="uniE38C" unicode="&#xe38c;" d="M591 1030 Q606 1030 617 1020 Q628 1009 628 993 L628 870 Q628 855 617 844 Q606 833 591 833 L468 833 Q453 833 442 844 Q431 855 431 870 L431 993 Q431 1009 442 1020 Q453 1030 468 1030 L591 1030 ZM949 1030 Q964 1030 975 1020 Q986 1009 986 993 L986 870 Q986 855 975 844 Q964 833 949 833 L826 833 Q810 833 799 844 Q789 855 789 870 L789 993 Q789 1009 799 1020 Q810 1030 826 1030 L949 1030 ZM729 1532 Q531 1532 365 1453 Q199 1374 101 1239 Q3 1104 3 942 Q3 744 153 585 Q128 514 71 437 Q34 386 21 373 Q9 361 4 341 Q0 321 9 302 Q17 284 34 273 Q51 261 71 261 Q281 261 466 392 Q596 352 729 352 Q928 352 1094 432 Q1260 511 1358 646 Q1456 781 1456 942 Q1456 1104 1358 1239 Q1260 1374 1094 1453 Q928 1532 729 1532 ZM729 488 Q616 488 508 522 L443 542 L386 505 Q309 449 224 420 Q258 480 281 536 L309 616 L253 678 Q139 798 139 942 Q139 1064 219 1169 Q298 1274 434 1335 Q571 1396 729 1396 Q888 1396 1025 1335 Q1161 1274 1240 1169 Q1320 1064 1320 942 Q1320 820 1240 715 Q1161 610 1025 549 Q888 488 729 488 ZM1567 104 Q1579 90 1582 70 Q1585 50 1575 32 Q1565 14 1547 4 Q1530 -6 1510 -5 Q1300 10 1125 153 Q1055 137 961.5 130.5 Q868 124 798 129 Q781 130 749 134.5 Q717 139 685.5 143.5 Q654 148 638 151 L777 279 Q822 270 868 267 Q982 259 1092 286 L1158 301 L1212 260 Q1285 199 1368 164 Q1338 226 1319 284 L1296 366 L1357 424 Q1478 535 1488 679 Q1489 687 1489 694 Q1489 696 1489 698 L1625 833 Q1625 831 1625 814.5 Q1625 798 1625 774 Q1625 751 1625 728 Q1625 705 1624.5 689 Q1624 673 1624 670 Q1611 472 1450 324 Q1470 251 1522 171 Q1555 117 1567 104 Z" /><glyph glyph-name="uniE38D" unicode="&#xe38d;" d="M888 1543 Q646 1543 444 1446 Q241 1350 122 1186 Q3 1021 3 824 Q3 582 186 389 Q155 303 86 209 Q41 147 25 132 Q10 116 5 92 Q0 68 10 45 Q20 23 41 9 Q62 -5 86 -5 Q342 -5 566 154 Q725 106 888 106 Q1130 106 1332 202 Q1534 299 1653 463 Q1772 627 1772 824 Q1772 1021 1653 1186 Q1534 1350 1332 1446 Q1130 1543 888 1543 ZM888 271 Q749 271 618 313 L539 337 L470 292 Q376 223 273 189 Q314 261 342 330 L376 427 L307 503 Q169 648 169 824 Q169 973 266 1101 Q362 1229 528 1303 Q694 1377 888 1377 Q1081 1377 1247 1303 Q1413 1229 1510 1101 Q1606 973 1606 824 Q1606 676 1510 548 Q1413 420 1247 346 Q1081 271 888 271 ZM742 680 Q757 680 768 690.5 Q779 701 779 716 L779 944 Q779 959 768 969.5 Q757 980 742 980 L515 980 Q500 980 489 969.5 Q478 959 478 944 L478 716 Q478 701 489 690.5 Q500 680 515 680 L742 680 ZM1249 680 Q1264 680 1274.5 690.5 Q1285 701 1285 716 L1285 944 Q1285 959 1274.5 969.5 Q1264 980 1249 980 L1021 980 Q1006 980 995.5 969.5 Q985 959 985 944 L985 716 Q985 701 995.5 690.5 Q1006 680 1021 680 L1249 680 Z" /><glyph glyph-name="uniE38E" unicode="&#xe38e;" d="M1725 962 Q1599 1066 1251 1342 L1216 1373 Q1129 1446 1073 1481 Q976 1537 892 1537 Q808 1537 711 1481 Q658 1446 568 1373 L533 1342 Q202 1080 63 965 Q0 913 0 837 L0 -80 Q0 -149 49 -198 Q98 -247 167 -247 L1617 -247 Q1686 -247 1735 -198 Q1784 -149 1784 -80 L1784 833 Q1784 913 1725 962 ZM1617 -59 Q1617 -66 1610 -73 Q1603 -80 1596 -80 L188 -80 Q181 -80 174 -73 Q167 -66 167 -59 L167 826 Q167 837 174 840 Q174 840 336.5 840 Q499 840 737.5 840 Q976 840 1212 840 Q1448 840 1610 840 Q1617 833 1617 826 L1617 -59 ZM1505 596 Q1516 582 1514 565 Q1512 547 1498 537 L1216 307 Q1125 234 1073 199 Q976 143 892 143 Q808 143 711 199 Q655 234 568 307 L286 537 Q272 547 270 565 Q268 582 279 596 L331 659 Q341 673 359 675 Q376 676 390 666 L672 439 Q742 380 780 356 Q847 310 892 310 Q937 310 1003 356 Q1042 380 1111 439 L1394 666 Q1408 676 1425 675 Q1442 673 1453 659 L1505 596 Z" /><glyph glyph-name="uniE38F" unicode="&#xe38f;" d="M1731 1355 Q1783 1302 1783 1227 Q1783 1151 1731 1098 L916 284 L483 248 L526 674 L1341 1488 Q1393 1541 1469 1541 Q1545 1541 1598 1488 L1731 1355 ZM848 426 L1424 1002 L1245 1182 L669 606 L647 405 L848 426 ZM1626 1203 Q1635 1213 1635 1227 Q1635 1240 1626 1250 L1492 1383 Q1483 1392 1469 1392 Q1455 1392 1446 1383 L1350 1287 L1530 1107 L1626 1203 ZM1372 578 Q1387 572 1387 553 L1387 104 Q1387 42 1344 -1 Q1300 -44 1239 -44 L149 -44 Q87 -44 43 -1 Q0 42 0 104 L0 1194 Q0 1256 43 1299 Q87 1343 149 1343 L997 1343 Q1012 1343 1019 1327 Q1025 1312 1012 1299 L913 1200 Q907 1194 898 1194 L149 1194 L149 104 L1239 104 L1239 457 Q1239 466 1245 473 L1344 572 Q1356 584 1372 578 ZM912 529 L1333 950 Q1345 962 1349 976 Q1352 991 1346 998 L1311 1033 Q1304 1039 1289 1036 Q1275 1032 1263 1020 L842 599 Q831 588 827 573 Q823 558 830 552 L865 517 Q871 510 886 514 Q901 518 912 529 Z" /><glyph glyph-name="uniE390" unicode="&#xe390;" d="M1705 1540 L1458 -15 Q1445 -89 1380 -125 Q1345 -144 1306 -144 Q1274 -144 1245 -135 L884 17 L745 -176 Q700 -231 634 -236 Q568 -241 516 -197 Q464 -154 464 -83 L464 188 L97 343 Q39 365 15 420 Q-10 475 6 531 Q23 588 77 620 L1705 1540 ZM619 -83 L739 78 L619 127 L619 -83 ZM1306 11 L1496 1259 L155 485 L503 340 L1184 936 Q1206 956 1232 947 Q1258 939 1267 915 Q1277 891 1261 868 L809 214 L1306 11 Z" /><glyph glyph-name="uniE391" unicode="&#xe391;" d="M1706 1187 L346 1187 Q300 1187 261 1159 Q222 1131 207 1088 L74 1088 Q43 1088 22 1066 Q0 1044 0 1013 L0 173 Q0 102 51 51 Q102 0 173 0 L1706 0 Q1737 0 1758 22 Q1780 43 1780 74 L1780 1112 Q1780 1143 1758 1165 Q1737 1187 1706 1187 ZM148 173 L148 939 L198 939 L198 173 Q198 164 190 156 Q182 148 173 148 Q164 148 156 156 Q148 164 148 173 ZM1631 148 L343 148 L346 173 L346 1038 L1631 1038 L1631 148 ZM499 277 L919 277 Q934 277 945 288 Q956 299 956 314 L956 732 Q956 747 945 758 Q934 769 919 769 L499 769 Q483 769 472 758 Q461 747 461 732 L461 314 Q461 299 472 288 Q483 277 499 277 ZM585 645 L832 645 L832 401 L585 401 L585 645 ZM1055 534 L1055 608 Q1055 624 1066 635 Q1076 645 1092 645 L1292 645 Q1308 645 1319 635 Q1329 624 1329 608 L1329 534 Q1329 519 1319 508 Q1308 497 1292 497 L1092 497 Q1076 497 1066 508 Q1055 519 1055 534 ZM1055 312 L1055 386 Q1055 401 1066 412 Q1076 423 1092 423 L1501 423 Q1516 423 1527 412 Q1538 401 1538 386 L1538 312 Q1538 296 1527 285 Q1516 275 1501 275 L1092 275 Q1076 275 1066 285 Q1055 296 1055 312 Z" /><glyph glyph-name="uniE392" unicode="&#xe392;" d="M1396 1540 L338 1540 Q317 1540 308 1525 L7 1080 Q-8 1059 10 1038 L840 12 Q849 0 867 0 Q885 0 894 12 L1724 1038 Q1742 1059 1727 1080 L1426 1525 Q1414 1540 1396 1540 ZM395 1395 L566 1395 L453 1171 L205 1107 L395 1395 ZM265 962 L465 1027 L626 481 L265 962 ZM732 1395 L1002 1395 L1116 1171 L618 1171 L732 1395 ZM618 1027 L1116 1027 L867 232 L618 1027 ZM1108 481 L1269 1027 L1468 962 L1108 481 ZM1339 1395 L1529 1107 L1281 1171 L1168 1395 L1339 1395 Z" /><glyph glyph-name="uniE393" unicode="&#xe393;" d="M431 -149 L907 -149 Q904 -181 881 -203 Q855 -230 817 -230 L514 -230 Q477 -230 450 -203 Q427 -180 425 -149 Q426 -149 427 -149 Q429 -149 431 -149 ZM1243 1376 Q1332 1223 1332 1041 Q1332 890 1290 791 Q1260 731 1180 633 Q1120 557 1086 504 Q1068 476 1052.5 422.5 Q1037 369 1022 312 Q1004 235 987 190 Q980 163 957 148 Q934 133 904 133 L923 133 Q942 133 955 120 Q968 107 968 88 L968 -18 Q968 -48 951 -71 Q934 -94 908 -105 L424 -105 Q397 -94 380 -71 Q363 -48 363 -18 L363 88 Q363 107 376 120 Q390 133 409 133 L427 133 Q397 133 374 148 Q352 163 344 190 Q328 235 309 312 Q295 369 279 422.5 Q263 476 246 504 Q212 557 151 633 Q72 731 42 791 Q0 890 0 1041 Q0 1223 89 1376 Q178 1529 331 1618 Q484 1707 666 1707 Q847 1707 1001 1618 Q1154 1529 1243 1376 ZM1120 859 Q1150 931 1150 1041 Q1150 1173 1086 1285 Q1021 1397 910 1461 Q798 1525 666 1525 Q533 1525 422 1461 Q310 1397 246 1285 Q182 1173 182 1041 Q182 928 212 859 Q231 818 291 748 Q352 678 382 629 Q439 545 488 436 L844 436 Q893 545 949 629 Q980 678 1040 748 Q1101 818 1120 859 Z" /><glyph glyph-name="uniE394" unicode="&#xe394;" d="M1281 1713 L183 1713 Q107 1713 53 1659 Q0 1606 0 1530 L0 -56 Q0 -132 53 -185 Q107 -239 183 -239 L1281 -239 Q1357 -239 1410 -185 Q1464 -132 1464 -56 L1464 1530 Q1464 1606 1410 1659 Q1357 1713 1281 1713 ZM1281 -56 L183 -56 L183 1530 L1281 1530 L1281 -56 ZM389 276 L1075 276 Q1109 276 1134 297 Q1159 318 1159 349 L1159 421 Q1159 513 1084 577 Q1010 642 903 642 Q888 642 854 631 Q793 612 732 612 Q671 612 610 631 Q579 642 560 642 Q454 642 379 577 Q305 513 305 421 L305 349 Q305 318 330 297 Q354 276 389 276 ZM732 764 Q831 764 903 837 Q976 909 976 1008 Q976 1107 903 1180 Q831 1252 732 1252 Q633 1252 560 1180 Q488 1107 488 1008 Q488 909 560 837 Q633 764 732 764 Z" /><glyph glyph-name="uniE395" unicode="&#xe395;" d="M1313 1079 Q1214 850 1034 736 Q1214 621 1313 392 Q1404 182 1404 -58 L1420 -58 Q1439 -58 1452 -71 Q1466 -85 1466 -104 L1466 -195 Q1466 -215 1452 -228 Q1439 -241 1420 -241 L46 -241 Q27 -241 13 -228 Q0 -215 0 -195 L0 -104 Q0 -85 13 -71 Q27 -58 46 -58 L61 -58 Q61 182 153 392 Q252 621 431 736 Q252 850 153 1079 Q61 1289 61 1530 L46 1530 Q27 1530 13 1543 Q0 1556 0 1575 L0 1667 Q0 1686 13 1699 Q27 1713 46 1713 L1420 1713 Q1439 1713 1452 1699 Q1466 1686 1466 1667 L1466 1575 Q1466 1556 1452 1543 Q1439 1530 1420 1530 L1404 1530 Q1404 1289 1313 1079 ZM284 221 Q271 179 262 134 Q266 134 271 134 L1203 134 Q1195 179 1182 221 L284 221 ZM336 352 L1130 352 Q1106 399 1078 440 L403 440 Q396 440 390 442 Q360 401 336 352 ZM514 570 L951 570 Q850 644 733 644 Q615 644 514 570 ZM244 -58 L1221 -58 Q1221 -27 1219 4 Q1219 4 1219 4 Q1218 4 1217 4 L271 4 Q257 4 246 10 Q244 -23 244 -58 ZM979 923 Q1092 1018 1156 1178 Q1221 1339 1221 1530 L244 1530 Q244 1339 309 1178 Q374 1018 487 923 L979 923 Z" /></font>
</defs>
</svg>
